<svg xmlns="http://www.w3.org/2000/svg" xmlns:xlink="http://www.w3.org/1999/xlink" width="600" zoomAndPan="magnify" viewBox="0 0 450 262.499992" height="350" preserveAspectRatio="xMidYMid meet" version="1.0"><defs><g/><clipPath id="033af7834f"><path d="M 263 114 L 300 114 L 300 174.804688 L 263 174.804688 Z M 263 114 " clip-rule="nonzero"/></clipPath><clipPath id="cebd7dfa16"><rect x="0" width="325" y="0" height="175"/></clipPath></defs><g transform="matrix(1, 0, 0, 1, 63, 53)"><g clip-path="url(#cebd7dfa16)"><g fill="#ad795b" fill-opacity="1"><g transform="translate(54.808049, 49.484475)"><g><path d="M 62.90625 -43.359375 C 63.007812 -41.722656 62.925781 -39.554688 62.65625 -36.859375 C 62.394531 -34.160156 62.003906 -31.101562 61.484375 -27.6875 C 60.960938 -24.269531 60.359375 -20.660156 59.671875 -16.859375 C 58.984375 -13.054688 58.289062 -9.226562 57.59375 -5.375 C 57.125 -2.695312 56.632812 0.0351562 56.125 2.828125 C 55.625 5.628906 55.164062 8.3125 54.75 10.875 C 54.332031 13.4375 54.003906 15.695312 53.765625 17.65625 C 53.535156 19.625 53.4375 21.09375 53.46875 22.0625 C 53.601562 21.820312 53.753906 21.570312 53.921875 21.3125 C 54.054688 21.070312 54.25 20.914062 54.5 20.84375 C 54.75 20.78125 54.988281 20.816406 55.21875 20.953125 C 55.457031 21.085938 55.609375 21.28125 55.671875 21.53125 C 55.742188 21.78125 55.710938 22.023438 55.578125 22.265625 C 55.171875 22.929688 54.734375 23.539062 54.265625 24.09375 C 53.796875 24.644531 53.242188 24.820312 52.609375 24.625 C 52.242188 24.457031 51.96875 24.097656 51.78125 23.546875 C 51.59375 22.992188 51.523438 22.085938 51.578125 20.828125 C 51.628906 19.566406 51.804688 17.820312 52.109375 15.59375 C 52.410156 13.375 52.851562 10.519531 53.4375 7.03125 C 54.019531 3.550781 54.785156 -0.679688 55.734375 -5.671875 C 56.367188 -9.359375 57.019531 -13.078125 57.6875 -16.828125 C 58.351562 -20.585938 58.953125 -24.175781 59.484375 -27.59375 C 60.023438 -31.007812 60.4375 -34.070312 60.71875 -36.78125 C 61.007812 -39.5 61.101562 -41.644531 61 -43.21875 C 60.9375 -44.1875 60.800781 -44.894531 60.59375 -45.34375 C 60.394531 -45.800781 60.195312 -46.046875 60 -46.078125 C 60 -46.078125 59.984375 -46.078125 59.953125 -46.078125 C 59.617188 -46.078125 59.03125 -45.71875 58.1875 -45 C 57.351562 -44.28125 56.304688 -43 55.046875 -41.15625 C 53.796875 -39.3125 52.316406 -36.695312 50.609375 -33.3125 C 48.859375 -29.832031 46.691406 -24.867188 44.109375 -18.421875 C 41.535156 -11.972656 38.789062 -3.683594 35.875 6.4375 C 35.707031 7.039062 35.320312 7.273438 34.71875 7.140625 C 34.113281 7.003906 33.863281 6.632812 33.96875 6.03125 C 36.3125 -7.769531 37.566406 -18.140625 37.734375 -25.078125 C 37.804688 -27.222656 37.773438 -28.90625 37.640625 -30.125 C 37.503906 -31.34375 37.332031 -32.226562 37.125 -32.78125 C 36.925781 -33.34375 36.75 -33.695312 36.59375 -33.84375 C 36.445312 -33.988281 36.359375 -34.082031 36.328125 -34.125 C 36.296875 -34.125 36.132812 -34.070312 35.84375 -33.96875 C 35.5625 -33.863281 35.117188 -33.523438 34.515625 -32.953125 C 33.921875 -32.390625 33.144531 -31.40625 32.1875 -30 C 31.226562 -28.59375 30.078125 -26.597656 28.734375 -24.015625 C 27.398438 -21.441406 25.828125 -18.09375 24.015625 -13.96875 C 22.171875 -9.71875 20.316406 -5.117188 18.453125 -0.171875 C 16.597656 4.765625 14.816406 9.828125 13.109375 15.015625 C 11.398438 20.210938 9.84375 25.304688 8.4375 30.296875 C 8.4375 30.296875 8.4375 30.3125 8.4375 30.34375 C 8.207031 30.945312 7.96875 31.484375 7.71875 31.953125 C 7.46875 32.421875 7.140625 32.65625 6.734375 32.65625 C 6.628906 32.65625 6.507812 32.640625 6.375 32.609375 C 5.90625 32.441406 5.660156 32.082031 5.640625 31.53125 C 5.628906 30.976562 5.707031 30.113281 5.875 28.9375 C 6.113281 27.363281 6.515625 25.101562 7.078125 22.15625 C 8.085938 17.101562 9.5625 10.171875 11.5 1.359375 C 12.375 -2.691406 13.253906 -6.6875 14.140625 -10.625 C 15.035156 -14.5625 15.863281 -18.210938 16.625 -21.578125 C 17.394531 -24.941406 18.066406 -27.832031 18.640625 -30.25 C 19.210938 -32.664062 19.613281 -34.359375 19.84375 -35.328125 C 20.382812 -37.640625 20.660156 -39.390625 20.671875 -40.578125 C 20.691406 -41.765625 20.59375 -42.59375 20.375 -43.0625 C 20.15625 -43.53125 19.976562 -43.816406 19.84375 -43.921875 C 19.476562 -44.148438 18.914062 -44.113281 18.15625 -43.8125 C 17.40625 -43.507812 16.546875 -42.992188 15.578125 -42.265625 C 14.273438 -41.253906 12.9375 -39.941406 11.5625 -38.328125 C 10.1875 -36.722656 8.882812 -34.96875 7.65625 -33.0625 C 6.4375 -31.15625 5.398438 -29.222656 4.546875 -27.265625 C 3.691406 -25.304688 3.101562 -23.421875 2.78125 -21.609375 C 2.46875 -19.796875 2.546875 -18.203125 3.015625 -16.828125 C 3.984375 -13.953125 6.765625 -12.476562 11.359375 -12.40625 C 11.628906 -12.40625 11.851562 -12.304688 12.03125 -12.109375 C 12.21875 -11.910156 12.3125 -11.675781 12.3125 -11.40625 C 12.3125 -11.132812 12.207031 -10.90625 12 -10.71875 C 11.800781 -10.539062 11.585938 -10.453125 11.359375 -10.453125 C 11.359375 -10.453125 11.347656 -10.453125 11.328125 -10.453125 C 11.316406 -10.453125 11.3125 -10.453125 11.3125 -10.453125 C 10.070312 -10.484375 8.765625 -10.65625 7.390625 -10.96875 C 6.015625 -11.289062 4.765625 -11.863281 3.640625 -12.6875 C 2.515625 -13.507812 1.6875 -14.691406 1.15625 -16.234375 C 0.75 -17.472656 0.585938 -18.773438 0.671875 -20.140625 C 0.753906 -21.515625 1 -22.878906 1.40625 -24.234375 C 1.8125 -25.597656 2.269531 -26.875 2.78125 -28.0625 C 3.300781 -29.25 3.796875 -30.28125 4.265625 -31.15625 C 5.640625 -33.664062 7.234375 -36.054688 9.046875 -38.328125 C 10.859375 -40.609375 12.648438 -42.4375 14.421875 -43.8125 C 16.128906 -45.125 17.5 -45.820312 18.53125 -45.90625 C 19.570312 -45.988281 20.363281 -45.863281 20.90625 -45.53125 C 22.84375 -44.289062 23.109375 -40.738281 21.703125 -34.875 C 21.335938 -33.332031 20.859375 -31.296875 20.265625 -28.765625 C 19.679688 -26.234375 19.03125 -23.375 18.3125 -20.1875 C 17.59375 -17.007812 16.832031 -13.65625 16.03125 -10.125 C 15.226562 -6.59375 14.429688 -3.046875 13.640625 0.515625 C 12.859375 4.085938 12.101562 7.539062 11.375 10.875 C 10.65625 14.207031 10.03125 17.25 9.5 20 C 10.769531 15.945312 12.109375 11.894531 13.515625 7.84375 C 14.921875 3.789062 16.359375 -0.144531 17.828125 -3.96875 C 19.304688 -7.789062 20.785156 -11.394531 22.265625 -14.78125 C 24.203125 -19.226562 25.90625 -22.832031 27.375 -25.59375 C 28.851562 -28.363281 30.128906 -30.484375 31.203125 -31.953125 C 32.273438 -33.429688 33.179688 -34.453125 33.921875 -35.015625 C 34.660156 -35.585938 35.253906 -35.90625 35.703125 -35.96875 C 36.148438 -36.039062 36.507812 -36.046875 36.78125 -35.984375 C 37.25 -35.878906 37.703125 -35.578125 38.140625 -35.078125 C 38.578125 -34.578125 38.9375 -33.726562 39.21875 -32.53125 C 39.5 -31.34375 39.664062 -29.664062 39.71875 -27.5 C 39.769531 -25.34375 39.648438 -22.570312 39.359375 -19.1875 C 39.078125 -15.8125 38.601562 -11.660156 37.9375 -6.734375 C 39.976562 -12.929688 42.046875 -18.582031 44.140625 -23.6875 C 46.234375 -28.800781 48.269531 -33.191406 50.25 -36.859375 C 52.226562 -40.523438 54.070312 -43.328125 55.78125 -45.265625 C 57.488281 -47.210938 58.976562 -48.117188 60.25 -47.984375 C 61.820312 -47.816406 62.707031 -46.273438 62.90625 -43.359375 Z M 62.90625 -43.359375 "/></g></g></g><g fill="#ad795b" fill-opacity="1"><g transform="translate(119.582547, 49.484475)"><g><path d="M 14.71875 -11.453125 C 14.957031 -11.316406 15.097656 -11.113281 15.140625 -10.84375 C 15.191406 -10.582031 15.15625 -10.332031 15.03125 -10.09375 C 14.382812 -9.09375 13.578125 -7.972656 12.609375 -6.734375 C 11.640625 -5.492188 10.582031 -4.3125 9.4375 -3.1875 C 8.300781 -2.0625 7.171875 -1.128906 6.046875 -0.390625 C 4.929688 0.335938 3.90625 0.703125 2.96875 0.703125 C 2.5625 0.703125 2.207031 0.632812 1.90625 0.5 C 0.769531 0 0.140625 -1.210938 0.015625 -3.140625 C -0.0976562 -5.066406 0.296875 -7.789062 1.203125 -11.3125 C 1.273438 -11.570312 1.425781 -11.769531 1.65625 -11.90625 C 1.894531 -12.039062 2.128906 -12.078125 2.359375 -12.015625 C 2.628906 -11.941406 2.832031 -11.785156 2.96875 -11.546875 C 3.101562 -11.316406 3.132812 -11.085938 3.0625 -10.859375 C 2.53125 -8.710938 2.195312 -7.007812 2.0625 -5.75 C 1.925781 -4.5 1.898438 -3.550781 1.984375 -2.90625 C 2.066406 -2.269531 2.191406 -1.84375 2.359375 -1.625 C 2.523438 -1.414062 2.625 -1.3125 2.65625 -1.3125 C 3.09375 -1.101562 3.726562 -1.242188 4.5625 -1.734375 C 5.40625 -2.222656 6.34375 -2.941406 7.375 -3.890625 C 8.414062 -4.847656 9.460938 -5.953125 10.515625 -7.203125 C 11.578125 -8.460938 12.523438 -9.78125 13.359375 -11.15625 C 13.535156 -11.382812 13.75 -11.523438 14 -11.578125 C 14.25 -11.628906 14.488281 -11.585938 14.71875 -11.453125 Z M 2.859375 -15.484375 C 2.191406 -15.515625 1.847656 -15.703125 1.828125 -16.046875 C 1.816406 -16.398438 1.96875 -16.757812 2.28125 -17.125 C 2.601562 -17.5 2.929688 -17.753906 3.265625 -17.890625 C 3.796875 -18.054688 4.1875 -18.019531 4.4375 -17.78125 C 4.695312 -17.550781 4.816406 -17.25 4.796875 -16.875 C 4.785156 -16.507812 4.617188 -16.175781 4.296875 -15.875 C 3.972656 -15.570312 3.492188 -15.441406 2.859375 -15.484375 Z M 2.859375 -15.484375 "/></g></g></g><g fill="#ad795b" fill-opacity="1"><g transform="translate(133.401815, 49.484475)"><g><path d="M 16.625 -11.40625 C 16.832031 -11.269531 16.96875 -11.066406 17.03125 -10.796875 C 17.101562 -10.535156 17.054688 -10.300781 16.890625 -10.09375 C 15.273438 -7.613281 13.679688 -5.316406 12.109375 -3.203125 C 10.535156 -1.097656 8.984375 0.601562 7.453125 1.90625 C 5.929688 3.21875 4.453125 3.875 3.015625 3.875 C 2.710938 3.875 2.410156 3.835938 2.109375 3.765625 C 0.898438 3.492188 -0.0195312 2.789062 -0.65625 1.65625 C -1.15625 0.75 -1.445312 -0.296875 -1.53125 -1.484375 C -1.613281 -2.671875 -1.554688 -3.882812 -1.359375 -5.125 C -1.160156 -6.363281 -0.859375 -7.519531 -0.453125 -8.59375 C 0.210938 -10.4375 1.054688 -11.859375 2.078125 -12.859375 C 3.109375 -13.867188 4.070312 -14.222656 4.96875 -13.921875 C 5.132812 -13.890625 5.378906 -13.738281 5.703125 -13.46875 C 6.023438 -13.195312 6.269531 -12.742188 6.4375 -12.109375 C 6.601562 -11.472656 6.519531 -10.550781 6.1875 -9.34375 C 6.113281 -9.070312 5.96875 -8.867188 5.75 -8.734375 C 5.53125 -8.609375 5.289062 -8.578125 5.03125 -8.640625 C 4.757812 -8.710938 4.554688 -8.863281 4.421875 -9.09375 C 4.285156 -9.332031 4.253906 -9.566406 4.328125 -9.796875 C 4.523438 -10.597656 4.597656 -11.175781 4.546875 -11.53125 C 4.492188 -11.882812 4.4375 -12.078125 4.375 -12.109375 C 4.238281 -12.109375 3.851562 -11.832031 3.21875 -11.28125 C 2.582031 -10.726562 1.960938 -9.597656 1.359375 -7.890625 C 0.753906 -6.316406 0.425781 -4.71875 0.375 -3.09375 C 0.320312 -1.46875 0.550781 -0.199219 1.0625 0.703125 C 1.394531 1.335938 1.878906 1.722656 2.515625 1.859375 C 3.421875 2.054688 4.441406 1.742188 5.578125 0.921875 C 6.710938 0.109375 7.859375 -0.988281 9.015625 -2.375 C 10.171875 -3.769531 11.289062 -5.253906 12.375 -6.828125 C 13.46875 -8.410156 14.4375 -9.851562 15.28125 -11.15625 C 15.414062 -11.351562 15.613281 -11.484375 15.875 -11.546875 C 16.144531 -11.617188 16.394531 -11.570312 16.625 -11.40625 Z M 16.625 -11.40625 "/></g></g></g><g fill="#ad795b" fill-opacity="1"><g transform="translate(149.381909, 49.484475)"><g><path d="M 23.8125 -11.5 C 24.019531 -11.375 24.15625 -11.175781 24.21875 -10.90625 C 24.289062 -10.632812 24.257812 -10.382812 24.125 -10.15625 C 22.507812 -7.570312 21.082031 -5.472656 19.84375 -3.859375 C 18.601562 -2.253906 17.539062 -1.03125 16.65625 -0.1875 C 15.769531 0.644531 15.023438 1.207031 14.421875 1.5 C 13.816406 1.800781 13.328125 1.953125 12.953125 1.953125 C 12.585938 1.953125 12.304688 1.9375 12.109375 1.90625 C 11.335938 1.707031 10.765625 1.25 10.390625 0.53125 C 10.023438 -0.183594 9.785156 -0.929688 9.671875 -1.703125 C 9.554688 -2.472656 9.484375 -3.0625 9.453125 -3.46875 C 9.378906 -4.632812 9.242188 -5.421875 9.046875 -5.828125 C 8.847656 -6.234375 8.695312 -6.4375 8.59375 -6.4375 C 8.5625 -6.4375 8.546875 -6.4375 8.546875 -6.4375 C 8.109375 -6.4375 7.382812 -5.820312 6.375 -4.59375 C 5.375 -3.375 4.191406 -1.457031 2.828125 1.15625 C 1.472656 3.769531 0.0585938 7.171875 -1.40625 11.359375 C -1.539062 11.796875 -1.84375 12.015625 -2.3125 12.015625 C -2.375 12.015625 -2.441406 12.015625 -2.515625 12.015625 C -3.046875 11.878906 -3.296875 11.539062 -3.265625 11 C -3.234375 10.4375 -3.082031 9.414062 -2.8125 7.9375 C -2.539062 6.46875 -2.179688 4.703125 -1.734375 2.640625 C -1.285156 0.578125 -0.78125 -1.65625 -0.21875 -4.0625 C 0.332031 -6.476562 0.898438 -8.925781 1.484375 -11.40625 C 2.066406 -13.882812 2.625 -16.253906 3.15625 -18.515625 C 3.695312 -20.773438 4.1875 -22.8125 4.625 -24.625 C 5.0625 -26.4375 5.410156 -27.882812 5.671875 -28.96875 C 5.941406 -30.0625 6.078125 -30.625 6.078125 -30.65625 C 6.847656 -33.738281 7.703125 -36.539062 8.640625 -39.0625 C 9.578125 -41.59375 10.503906 -43.628906 11.421875 -45.171875 C 12.347656 -46.710938 13.164062 -47.550781 13.875 -47.6875 C 14.4375 -47.789062 14.867188 -47.625 15.171875 -47.1875 C 15.640625 -46.519531 15.597656 -45.117188 15.046875 -42.984375 C 14.492188 -40.859375 13.488281 -38.171875 12.03125 -34.921875 C 10.570312 -31.671875 8.722656 -28.035156 6.484375 -24.015625 C 5.878906 -21.503906 5.21875 -18.757812 4.5 -15.78125 C 3.78125 -12.800781 3.078125 -9.800781 2.390625 -6.78125 C 1.703125 -3.769531 1.070312 -0.988281 0.5 1.5625 C 1.40625 -0.351562 2.332031 -2.078125 3.28125 -3.609375 C 4.238281 -5.148438 5.195312 -6.347656 6.15625 -7.203125 C 7.113281 -8.066406 8.007812 -8.445312 8.84375 -8.34375 C 9.582031 -8.238281 10.125 -7.867188 10.46875 -7.234375 C 10.820312 -6.597656 11.054688 -5.921875 11.171875 -5.203125 C 11.296875 -4.484375 11.359375 -3.957031 11.359375 -3.625 C 11.453125 -2.382812 11.613281 -1.476562 11.84375 -0.90625 C 12.082031 -0.332031 12.320312 -0.03125 12.5625 0 C 12.625 0.03125 12.847656 -0.0078125 13.234375 -0.125 C 13.617188 -0.238281 14.1875 -0.613281 14.9375 -1.25 C 15.695312 -1.894531 16.695312 -2.992188 17.9375 -4.546875 C 19.175781 -6.109375 20.6875 -8.328125 22.46875 -11.203125 C 22.59375 -11.398438 22.789062 -11.53125 23.0625 -11.59375 C 23.332031 -11.664062 23.582031 -11.632812 23.8125 -11.5 Z M 13.515625 -44.875 C 12.941406 -44.03125 12.175781 -42.546875 11.21875 -40.421875 C 10.269531 -38.296875 9.3125 -35.410156 8.34375 -31.765625 C 10.050781 -35.140625 11.296875 -37.914062 12.078125 -40.09375 C 12.867188 -42.269531 13.347656 -43.863281 13.515625 -44.875 Z M 13.515625 -44.875 "/></g></g></g><g fill="#ad795b" fill-opacity="1"><g transform="translate(172.145986, 49.484475)"><g><path d="M 16.984375 -11.203125 C 17.222656 -11.066406 17.359375 -10.863281 17.390625 -10.59375 C 17.421875 -10.332031 17.367188 -10.101562 17.234375 -9.90625 C 15.253906 -7.15625 13.441406 -4.882812 11.796875 -3.09375 C 10.160156 -1.300781 8.523438 0.179688 6.890625 1.359375 C 5.648438 2.222656 4.425781 2.65625 3.21875 2.65625 C 2.28125 2.65625 1.457031 2.40625 0.75 1.90625 C 0.28125 1.570312 -0.175781 0.976562 -0.625 0.125 C -1.082031 -0.726562 -1.328125 -1.96875 -1.359375 -3.59375 C -1.390625 -5.21875 -0.988281 -7.351562 -0.15625 -10 C -0.15625 -10 -0.15625 -10.015625 -0.15625 -10.046875 C 0.851562 -13.265625 2.035156 -15.71875 3.390625 -17.40625 C 4.742188 -19.101562 5.910156 -19.96875 6.890625 -20 C 7.660156 -20.03125 8.160156 -19.695312 8.390625 -19 C 8.753906 -18.019531 8.316406 -16.632812 7.078125 -14.84375 C 5.835938 -13.050781 4.015625 -11.148438 1.609375 -9.140625 C 0.867188 -6.796875 0.515625 -4.960938 0.546875 -3.640625 C 0.585938 -2.316406 0.773438 -1.363281 1.109375 -0.78125 C 1.441406 -0.195312 1.707031 0.179688 1.90625 0.359375 C 2.914062 1.085938 4.207031 0.882812 5.78125 -0.25 C 7.320312 -1.320312 8.878906 -2.71875 10.453125 -4.4375 C 12.023438 -6.164062 13.75 -8.351562 15.625 -11 C 15.789062 -11.207031 16.007812 -11.332031 16.28125 -11.375 C 16.550781 -11.425781 16.785156 -11.367188 16.984375 -11.203125 Z M 6.53125 -17.890625 C 6.164062 -17.648438 5.660156 -17.15625 5.015625 -16.40625 C 4.378906 -15.65625 3.726562 -14.554688 3.0625 -13.109375 C 4.269531 -14.285156 5.125 -15.285156 5.625 -16.109375 C 6.125 -16.929688 6.425781 -17.523438 6.53125 -17.890625 Z M 6.53125 -17.890625 "/></g></g></g><g fill="#ad795b" fill-opacity="1"><g transform="translate(187.874824, 49.484475)"><g><path d="M 14.78125 -47.078125 C 15.207031 -46.441406 15.210938 -45.148438 14.796875 -43.203125 C 14.378906 -41.265625 13.515625 -38.863281 12.203125 -36 C 10.898438 -33.132812 9.160156 -29.960938 6.984375 -26.484375 C 6.953125 -26.453125 6.921875 -26.414062 6.890625 -26.375 C 6.015625 -22.832031 5.148438 -19.21875 4.296875 -15.53125 C 3.441406 -11.84375 2.628906 -8.222656 1.859375 -4.671875 C 1.085938 -1.117188 0.382812 2.21875 -0.25 5.34375 C -0.882812 8.476562 -1.425781 11.269531 -1.875 13.71875 C -2.332031 16.164062 -2.660156 18.125 -2.859375 19.59375 C -2.828125 19.59375 -2.796875 19.59375 -2.765625 19.59375 C -2.492188 19.695312 -2.300781 19.863281 -2.1875 20.09375 C -2.070312 20.332031 -2.0625 20.585938 -2.15625 20.859375 C -2.394531 21.492188 -2.640625 22.066406 -2.890625 22.578125 C -3.140625 23.097656 -3.484375 23.359375 -3.921875 23.359375 C -4.015625 23.359375 -4.128906 23.34375 -4.265625 23.3125 C -4.566406 23.21875 -4.785156 23.007812 -4.921875 22.6875 C -5.054688 22.363281 -5.070312 21.722656 -4.96875 20.765625 C -4.875 19.816406 -4.660156 18.351562 -4.328125 16.375 C -3.722656 12.757812 -2.816406 8.039062 -1.609375 2.21875 C -0.734375 -1.871094 0.175781 -6.035156 1.125 -10.265625 C 2.082031 -14.503906 3.03125 -18.59375 3.96875 -22.53125 C 4.90625 -26.46875 5.8125 -30.046875 6.6875 -33.265625 C 6.851562 -33.898438 7.101562 -34.785156 7.4375 -35.921875 C 7.769531 -37.066406 8.15625 -38.289062 8.59375 -39.59375 C 9.03125 -40.90625 9.515625 -42.160156 10.046875 -43.359375 C 10.585938 -44.566406 11.140625 -45.5625 11.703125 -46.34375 C 12.273438 -47.132812 12.847656 -47.582031 13.421875 -47.6875 C 13.984375 -47.789062 14.4375 -47.585938 14.78125 -47.078125 Z M 8.640625 -33.109375 C 10.253906 -36.128906 11.382812 -38.644531 12.03125 -40.65625 C 12.6875 -42.664062 13.066406 -44.125 13.171875 -45.03125 C 12.703125 -44.351562 12.0625 -43.082031 11.25 -41.21875 C 10.445312 -39.363281 9.578125 -36.660156 8.640625 -33.109375 Z M 8.640625 -33.109375 "/></g></g></g><g fill="#ad795b" fill-opacity="1"><g transform="translate(196.618668, 49.484475)"><g><path d="M 14.78125 -47.078125 C 15.207031 -46.441406 15.210938 -45.148438 14.796875 -43.203125 C 14.378906 -41.265625 13.515625 -38.863281 12.203125 -36 C 10.898438 -33.132812 9.160156 -29.960938 6.984375 -26.484375 C 6.953125 -26.453125 6.921875 -26.414062 6.890625 -26.375 C 6.015625 -22.832031 5.148438 -19.21875 4.296875 -15.53125 C 3.441406 -11.84375 2.628906 -8.222656 1.859375 -4.671875 C 1.085938 -1.117188 0.382812 2.21875 -0.25 5.34375 C -0.882812 8.476562 -1.425781 11.269531 -1.875 13.71875 C -2.332031 16.164062 -2.660156 18.125 -2.859375 19.59375 C -2.828125 19.59375 -2.796875 19.59375 -2.765625 19.59375 C -2.492188 19.695312 -2.300781 19.863281 -2.1875 20.09375 C -2.070312 20.332031 -2.0625 20.585938 -2.15625 20.859375 C -2.394531 21.492188 -2.640625 22.066406 -2.890625 22.578125 C -3.140625 23.097656 -3.484375 23.359375 -3.921875 23.359375 C -4.015625 23.359375 -4.128906 23.34375 -4.265625 23.3125 C -4.566406 23.21875 -4.785156 23.007812 -4.921875 22.6875 C -5.054688 22.363281 -5.070312 21.722656 -4.96875 20.765625 C -4.875 19.816406 -4.660156 18.351562 -4.328125 16.375 C -3.722656 12.757812 -2.816406 8.039062 -1.609375 2.21875 C -0.734375 -1.871094 0.175781 -6.035156 1.125 -10.265625 C 2.082031 -14.503906 3.03125 -18.59375 3.96875 -22.53125 C 4.90625 -26.46875 5.8125 -30.046875 6.6875 -33.265625 C 6.851562 -33.898438 7.101562 -34.785156 7.4375 -35.921875 C 7.769531 -37.066406 8.15625 -38.289062 8.59375 -39.59375 C 9.03125 -40.90625 9.515625 -42.160156 10.046875 -43.359375 C 10.585938 -44.566406 11.140625 -45.5625 11.703125 -46.34375 C 12.273438 -47.132812 12.847656 -47.582031 13.421875 -47.6875 C 13.984375 -47.789062 14.4375 -47.585938 14.78125 -47.078125 Z M 8.640625 -33.109375 C 10.253906 -36.128906 11.382812 -38.644531 12.03125 -40.65625 C 12.6875 -42.664062 13.066406 -44.125 13.171875 -45.03125 C 12.703125 -44.351562 12.0625 -43.082031 11.25 -41.21875 C 10.445312 -39.363281 9.578125 -36.660156 8.640625 -33.109375 Z M 8.640625 -33.109375 "/></g></g></g><g fill="#ad795b" fill-opacity="1"><g transform="translate(205.362528, 49.484475)"><g><path d="M 16.984375 -11.203125 C 17.222656 -11.066406 17.359375 -10.863281 17.390625 -10.59375 C 17.421875 -10.332031 17.367188 -10.101562 17.234375 -9.90625 C 15.253906 -7.15625 13.441406 -4.882812 11.796875 -3.09375 C 10.160156 -1.300781 8.523438 0.179688 6.890625 1.359375 C 5.648438 2.222656 4.425781 2.65625 3.21875 2.65625 C 2.28125 2.65625 1.457031 2.40625 0.75 1.90625 C 0.28125 1.570312 -0.175781 0.976562 -0.625 0.125 C -1.082031 -0.726562 -1.328125 -1.96875 -1.359375 -3.59375 C -1.390625 -5.21875 -0.988281 -7.351562 -0.15625 -10 C -0.15625 -10 -0.15625 -10.015625 -0.15625 -10.046875 C 0.851562 -13.265625 2.035156 -15.71875 3.390625 -17.40625 C 4.742188 -19.101562 5.910156 -19.96875 6.890625 -20 C 7.660156 -20.03125 8.160156 -19.695312 8.390625 -19 C 8.753906 -18.019531 8.316406 -16.632812 7.078125 -14.84375 C 5.835938 -13.050781 4.015625 -11.148438 1.609375 -9.140625 C 0.867188 -6.796875 0.515625 -4.960938 0.546875 -3.640625 C 0.585938 -2.316406 0.773438 -1.363281 1.109375 -0.78125 C 1.441406 -0.195312 1.707031 0.179688 1.90625 0.359375 C 2.914062 1.085938 4.207031 0.882812 5.78125 -0.25 C 7.320312 -1.320312 8.878906 -2.71875 10.453125 -4.4375 C 12.023438 -6.164062 13.75 -8.351562 15.625 -11 C 15.789062 -11.207031 16.007812 -11.332031 16.28125 -11.375 C 16.550781 -11.425781 16.785156 -11.367188 16.984375 -11.203125 Z M 6.53125 -17.890625 C 6.164062 -17.648438 5.660156 -17.15625 5.015625 -16.40625 C 4.378906 -15.65625 3.726562 -14.554688 3.0625 -13.109375 C 4.269531 -14.285156 5.125 -15.285156 5.625 -16.109375 C 6.125 -16.929688 6.425781 -17.523438 6.53125 -17.890625 Z M 6.53125 -17.890625 "/></g></g></g><g fill="#ad795b" fill-opacity="1"><g transform="translate(221.091365, 49.484475)"><g><path d="M 6.734375 -27.484375 C 7.367188 -27.015625 7.6875 -26.363281 7.6875 -25.53125 C 7.6875 -24.59375 7.300781 -23.617188 6.53125 -22.609375 C 5.757812 -21.609375 4.9375 -20.769531 4.0625 -20.09375 C 3.894531 -19.96875 3.695312 -19.90625 3.46875 -19.90625 C 3.164062 -19.90625 2.914062 -20.035156 2.71875 -20.296875 C 2.550781 -20.503906 2.484375 -20.738281 2.515625 -21 C 2.546875 -21.269531 2.679688 -21.488281 2.921875 -21.65625 C 3.679688 -22.257812 4.347656 -22.9375 4.921875 -23.6875 C 5.492188 -24.445312 5.78125 -25.0625 5.78125 -25.53125 C 5.78125 -25.695312 5.710938 -25.828125 5.578125 -25.921875 C 5.335938 -26.097656 5.203125 -26.316406 5.171875 -26.578125 C 5.140625 -26.847656 5.207031 -27.082031 5.375 -27.28125 C 5.507812 -27.519531 5.707031 -27.65625 5.96875 -27.6875 C 6.238281 -27.71875 6.492188 -27.648438 6.734375 -27.484375 Z M 6.734375 -27.484375 "/></g></g></g><g fill="#ad795b" fill-opacity="1"><g transform="translate(232.398056, 49.484475)"><g><path d="M 22.359375 -11.5 C 22.554688 -11.332031 22.671875 -11.113281 22.703125 -10.84375 C 22.742188 -10.582031 22.664062 -10.351562 22.46875 -10.15625 C 21.488281 -9.007812 20.410156 -7.75 19.234375 -6.375 C 18.066406 -5.007812 16.921875 -3.671875 15.796875 -2.359375 C 14.679688 -1.054688 13.71875 0.0703125 12.90625 1.03125 C 12.101562 1.988281 11.570312 2.632812 11.3125 2.96875 C 10.738281 3.695312 10.179688 4.414062 9.640625 5.125 C 10.078125 7.070312 10.117188 8.90625 9.765625 10.625 C 9.421875 12.351562 8.835938 13.882812 8.015625 15.21875 C 7.191406 16.5625 6.328125 17.601562 5.421875 18.34375 C 4.484375 19.144531 3.613281 19.546875 2.8125 19.546875 C 2.3125 19.546875 1.894531 19.378906 1.5625 19.046875 C 0.988281 18.503906 0.789062 17.707031 0.96875 16.65625 C 1.15625 15.601562 1.582031 14.40625 2.25 13.0625 C 2.925781 11.726562 3.734375 10.335938 4.671875 8.890625 C 5.609375 7.453125 6.5625 6.0625 7.53125 4.71875 C 7.363281 4.113281 7.128906 3.5 6.828125 2.875 C 6.523438 2.257812 6.175781 1.632812 5.78125 1 C 4.40625 -1.070312 3.238281 -3.019531 2.28125 -4.84375 C 1.332031 -6.675781 0.890625 -8.34375 0.953125 -9.84375 C 1.117188 -12.625 2.359375 -14.703125 4.671875 -16.078125 C 5.609375 -16.648438 6.597656 -16.984375 7.640625 -17.078125 C 8.679688 -17.179688 9.632812 -17.03125 10.5 -16.625 C 10.738281 -16.5 10.898438 -16.304688 10.984375 -16.046875 C 11.066406 -15.796875 11.054688 -15.554688 10.953125 -15.328125 C 10.816406 -15.085938 10.625 -14.925781 10.375 -14.84375 C 10.125 -14.757812 9.878906 -14.769531 9.640625 -14.875 C 8.441406 -15.445312 7.117188 -15.296875 5.671875 -14.421875 C 3.929688 -13.378906 3.015625 -11.820312 2.921875 -9.75 C 2.847656 -8.507812 3.265625 -7.050781 4.171875 -5.375 C 5.078125 -3.695312 6.148438 -1.9375 7.390625 -0.09375 C 8.023438 0.875 8.539062 1.859375 8.9375 2.859375 C 9.207031 2.523438 9.492188 2.160156 9.796875 1.765625 C 10.066406 1.421875 10.609375 0.765625 11.421875 -0.203125 C 12.242188 -1.171875 13.207031 -2.304688 14.3125 -3.609375 C 15.425781 -4.921875 16.578125 -6.265625 17.765625 -7.640625 C 18.953125 -9.015625 20.03125 -10.269531 21 -11.40625 C 21.164062 -11.601562 21.382812 -11.71875 21.65625 -11.75 C 21.925781 -11.789062 22.160156 -11.707031 22.359375 -11.5 Z M 6.03125 14.78125 C 6.257812 14.40625 6.539062 13.875 6.875 13.1875 C 7.21875 12.5 7.515625 11.660156 7.765625 10.671875 C 8.015625 9.691406 8.085938 8.597656 7.984375 7.390625 C 6.441406 9.566406 5.296875 11.375 4.546875 12.8125 C 3.796875 14.25 3.3125 15.34375 3.09375 16.09375 C 2.875 16.851562 2.796875 17.351562 2.859375 17.59375 C 3.097656 17.59375 3.519531 17.375 4.125 16.9375 C 4.726562 16.5 5.363281 15.78125 6.03125 14.78125 Z M 6.03125 14.78125 "/></g></g></g><g fill="#ad795b" fill-opacity="1"><g transform="translate(253.757476, 49.484475)"><g/></g></g><g fill="#ad795b" fill-opacity="1"><g transform="translate(1.290191, 133.792632)"><g/></g></g><g fill="#ad795b" fill-opacity="1"><g transform="translate(21.340859, 133.792632)"><g/></g></g><g fill="#ad795b" fill-opacity="1"><g transform="translate(41.394683, 133.792632)"><g><path d="M 59.140625 -35.625 C 59.347656 -34.382812 59.332031 -32.757812 59.09375 -30.75 C 58.863281 -28.738281 58.445312 -26.46875 57.84375 -23.9375 C 57.238281 -21.414062 56.457031 -18.753906 55.5 -15.953125 C 54.539062 -13.160156 53.441406 -10.351562 52.203125 -7.53125 C 50.960938 -4.71875 49.601562 -2.007812 48.125 0.59375 C 46.65625 3.207031 45.09375 5.585938 43.4375 7.734375 C 41.78125 9.878906 40.046875 11.671875 38.234375 13.109375 C 35.890625 14.984375 33.914062 15.519531 32.3125 14.71875 C 31.070312 14.113281 30.175781 12.847656 29.625 10.921875 C 29.070312 9.003906 28.734375 6.59375 28.609375 3.6875 C 28.492188 0.789062 28.472656 -2.429688 28.546875 -5.984375 C 28.546875 -7.222656 28.546875 -8.523438 28.546875 -9.890625 C 28.546875 -11.265625 28.519531 -12.503906 28.46875 -13.609375 C 28.414062 -14.722656 28.289062 -15.492188 28.09375 -15.921875 C 27.957031 -15.796875 27.726562 -15.519531 27.40625 -15.09375 C 27.09375 -14.675781 26.648438 -13.984375 26.078125 -13.015625 C 18.804688 -0.0859375 13.144531 9.320312 9.09375 15.21875 C 7.6875 17.195312 6.515625 18.75 5.578125 19.875 C 4.640625 21 3.851562 21.785156 3.21875 22.234375 C 2.582031 22.679688 2.046875 22.90625 1.609375 22.90625 C 1.367188 22.90625 1.132812 22.859375 0.90625 22.765625 C 0.601562 22.628906 0.347656 22.394531 0.140625 22.0625 C -0.0546875 21.726562 -0.171875 21.179688 -0.203125 20.421875 C -0.234375 19.671875 -0.140625 18.597656 0.078125 17.203125 C 0.296875 15.816406 0.707031 14.007812 1.3125 11.78125 C 1.914062 9.550781 2.734375 6.78125 3.765625 3.46875 C 4.640625 0.789062 5.585938 -2.019531 6.609375 -4.96875 C 7.628906 -7.914062 8.679688 -10.878906 9.765625 -13.859375 C 10.859375 -16.847656 11.921875 -19.734375 12.953125 -22.515625 C 13.992188 -25.296875 14.96875 -27.875 15.875 -30.25 C 17.25 -33.800781 18.429688 -36.691406 19.421875 -38.921875 C 20.410156 -41.148438 21.253906 -42.863281 21.953125 -44.0625 C 22.660156 -45.269531 23.238281 -46.113281 23.6875 -46.59375 C 24.144531 -47.082031 24.515625 -47.351562 24.796875 -47.40625 C 25.078125 -47.457031 25.320312 -47.46875 25.53125 -47.4375 C 26.195312 -47.269531 26.601562 -46.734375 26.75 -45.828125 C 26.90625 -44.921875 26.929688 -43.75 26.828125 -42.3125 C 26.828125 -42.039062 26.726562 -41.820312 26.53125 -41.65625 C 26.332031 -41.488281 26.097656 -41.40625 25.828125 -41.40625 C 25.554688 -41.4375 25.335938 -41.550781 25.171875 -41.75 C 25.003906 -41.957031 24.921875 -42.195312 24.921875 -42.46875 C 24.953125 -43.164062 24.96875 -43.722656 24.96875 -44.140625 C 24.96875 -44.554688 24.953125 -44.882812 24.921875 -45.125 C 24.585938 -44.71875 24.101562 -43.925781 23.46875 -42.75 C 22.832031 -41.582031 22.035156 -39.925781 21.078125 -37.78125 C 20.117188 -35.644531 18.988281 -32.898438 17.6875 -29.546875 C 15.007812 -22.578125 12.75 -16.515625 10.90625 -11.359375 C 9.0625 -6.203125 7.546875 -1.804688 6.359375 1.828125 C 5.171875 5.460938 4.25 8.46875 3.59375 10.84375 C 2.9375 13.226562 2.46875 15.113281 2.1875 16.5 C 1.90625 17.894531 1.742188 18.914062 1.703125 19.5625 C 1.671875 20.21875 1.691406 20.664062 1.765625 20.90625 C 1.960938 20.800781 2.296875 20.53125 2.765625 20.09375 C 3.234375 19.664062 3.898438 18.90625 4.765625 17.8125 C 5.640625 16.726562 6.78125 15.144531 8.1875 13.0625 C 12.175781 7.164062 17.585938 -1.84375 24.421875 -13.96875 C 25.328125 -15.570312 26.097656 -16.675781 26.734375 -17.28125 C 27.367188 -17.882812 28.003906 -18.101562 28.640625 -17.9375 C 29.578125 -17.664062 30.128906 -16.59375 30.296875 -14.71875 C 30.460938 -12.84375 30.515625 -9.910156 30.453125 -5.921875 C 30.453125 -4.179688 30.453125 -2.296875 30.453125 -0.265625 C 30.453125 1.753906 30.523438 3.707031 30.671875 5.59375 C 30.828125 7.488281 31.097656 9.109375 31.484375 10.453125 C 31.867188 11.796875 32.429688 12.632812 33.171875 12.96875 C 33.703125 13.226562 34.335938 13.179688 35.078125 12.828125 C 35.816406 12.484375 36.46875 12.078125 37.03125 11.609375 C 39.007812 10.035156 40.910156 7.984375 42.734375 5.453125 C 44.554688 2.921875 46.253906 0.121094 47.828125 -2.9375 C 49.410156 -6 50.828125 -9.140625 52.078125 -12.359375 C 53.335938 -15.578125 54.394531 -18.6875 55.25 -21.6875 C 56.101562 -24.6875 56.707031 -27.375 57.0625 -29.75 C 57.414062 -32.125 57.472656 -33.984375 57.234375 -35.328125 C 57.097656 -36.191406 56.863281 -36.675781 56.53125 -36.78125 C 56.46875 -36.8125 56.25 -36.785156 55.875 -36.703125 C 55.507812 -36.617188 54.925781 -36.207031 54.125 -35.46875 C 53.914062 -35.300781 53.675781 -35.226562 53.40625 -35.25 C 53.144531 -35.269531 52.929688 -35.378906 52.765625 -35.578125 C 52.566406 -35.773438 52.472656 -36.007812 52.484375 -36.28125 C 52.503906 -36.550781 52.613281 -36.769531 52.8125 -36.9375 C 54.550781 -38.476562 56.007812 -39.046875 57.1875 -38.640625 C 58.226562 -38.273438 58.878906 -37.269531 59.140625 -35.625 Z M 59.140625 -35.625 "/></g></g></g><g fill="#ad795b" fill-opacity="1"><g transform="translate(104.259797, 133.792632)"><g><path d="M 16.984375 -11.203125 C 17.222656 -11.066406 17.359375 -10.863281 17.390625 -10.59375 C 17.421875 -10.332031 17.367188 -10.101562 17.234375 -9.90625 C 15.253906 -7.15625 13.441406 -4.882812 11.796875 -3.09375 C 10.160156 -1.300781 8.523438 0.179688 6.890625 1.359375 C 5.648438 2.222656 4.425781 2.65625 3.21875 2.65625 C 2.28125 2.65625 1.457031 2.40625 0.75 1.90625 C 0.28125 1.570312 -0.175781 0.976562 -0.625 0.125 C -1.082031 -0.726562 -1.328125 -1.96875 -1.359375 -3.59375 C -1.390625 -5.21875 -0.988281 -7.351562 -0.15625 -10 C -0.15625 -10 -0.15625 -10.015625 -0.15625 -10.046875 C 0.851562 -13.265625 2.035156 -15.71875 3.390625 -17.40625 C 4.742188 -19.101562 5.910156 -19.96875 6.890625 -20 C 7.660156 -20.03125 8.160156 -19.695312 8.390625 -19 C 8.753906 -18.019531 8.316406 -16.632812 7.078125 -14.84375 C 5.835938 -13.050781 4.015625 -11.148438 1.609375 -9.140625 C 0.867188 -6.796875 0.515625 -4.960938 0.546875 -3.640625 C 0.585938 -2.316406 0.773438 -1.363281 1.109375 -0.78125 C 1.441406 -0.195312 1.707031 0.179688 1.90625 0.359375 C 2.914062 1.085938 4.207031 0.882812 5.78125 -0.25 C 7.320312 -1.320312 8.878906 -2.71875 10.453125 -4.4375 C 12.023438 -6.164062 13.75 -8.351562 15.625 -11 C 15.789062 -11.207031 16.007812 -11.332031 16.28125 -11.375 C 16.550781 -11.425781 16.785156 -11.367188 16.984375 -11.203125 Z M 6.53125 -17.890625 C 6.164062 -17.648438 5.660156 -17.15625 5.015625 -16.40625 C 4.378906 -15.65625 3.726562 -14.554688 3.0625 -13.109375 C 4.269531 -14.285156 5.125 -15.285156 5.625 -16.109375 C 6.125 -16.929688 6.425781 -17.523438 6.53125 -17.890625 Z M 6.53125 -17.890625 "/></g></g></g><g fill="#ad795b" fill-opacity="1"><g transform="translate(123.50644, 133.792632)"><g><path d="M 21.203125 -11.25 C 21.441406 -11.125 21.59375 -10.925781 21.65625 -10.65625 C 21.726562 -10.382812 21.675781 -10.148438 21.5 -9.953125 C 20.09375 -7.640625 18.484375 -5.617188 16.671875 -3.890625 C 14.867188 -2.171875 13.019531 -0.691406 11.125 0.546875 C 9.238281 1.785156 7.421875 2.816406 5.671875 3.640625 C 3.929688 4.460938 2.410156 5.09375 1.109375 5.53125 C 0.640625 5.695312 0.269531 5.5625 0 5.125 C -0.53125 6.46875 -1 7.789062 -1.40625 9.09375 C -1.539062 9.53125 -1.859375 9.75 -2.359375 9.75 C -2.390625 9.75 -2.441406 9.75 -2.515625 9.75 C -3.046875 9.644531 -3.3125 9.328125 -3.3125 8.796875 C -3.3125 8.492188 -3.191406 7.753906 -2.953125 6.578125 C -2.722656 5.410156 -2.414062 3.910156 -2.03125 2.078125 C -1.644531 0.253906 -1.203125 -1.769531 -0.703125 -4 C -0.203125 -6.226562 0.3125 -8.53125 0.84375 -10.90625 C 1.382812 -13.28125 1.914062 -15.613281 2.4375 -17.90625 C 2.957031 -20.207031 3.453125 -22.328125 3.921875 -24.265625 C 3.921875 -24.367188 3.9375 -24.472656 3.96875 -24.578125 C 4.539062 -26.984375 5.007812 -28.925781 5.375 -30.40625 C 6.144531 -33.488281 7 -36.289062 7.9375 -38.8125 C 8.875 -41.34375 9.800781 -43.378906 10.71875 -44.921875 C 11.644531 -46.460938 12.460938 -47.300781 13.171875 -47.4375 C 13.734375 -47.539062 14.164062 -47.375 14.46875 -46.9375 C 14.9375 -46.257812 14.894531 -44.863281 14.34375 -42.75 C 13.789062 -40.644531 12.785156 -37.976562 11.328125 -34.75 C 9.867188 -31.519531 8.035156 -27.894531 5.828125 -23.875 C 5.296875 -21.625 4.726562 -19.191406 4.125 -16.578125 C 3.519531 -13.960938 2.921875 -11.332031 2.328125 -8.6875 C 1.742188 -6.039062 1.203125 -3.582031 0.703125 -1.3125 C 1.640625 -3.25 2.546875 -4.820312 3.421875 -6.03125 C 6.035156 -9.675781 8.109375 -11.265625 9.640625 -10.796875 C 9.941406 -10.703125 10.269531 -10.476562 10.625 -10.125 C 10.976562 -9.769531 11.171875 -9.109375 11.203125 -8.140625 C 11.234375 -7.140625 10.976562 -5.867188 10.4375 -4.328125 C 9.90625 -2.785156 9.085938 -1.257812 7.984375 0.25 C 10.503906 -1.21875 12.785156 -2.90625 14.828125 -4.8125 C 16.867188 -6.726562 18.5625 -8.773438 19.90625 -10.953125 C 20.03125 -11.191406 20.21875 -11.332031 20.46875 -11.375 C 20.726562 -11.425781 20.972656 -11.382812 21.203125 -11.25 Z M 12.8125 -44.671875 C 12.238281 -43.796875 11.472656 -42.296875 10.515625 -40.171875 C 9.566406 -38.046875 8.625 -35.175781 7.6875 -31.5625 C 9.363281 -34.9375 10.59375 -37.703125 11.375 -39.859375 C 12.164062 -42.023438 12.644531 -43.628906 12.8125 -44.671875 Z M 0.546875 3.671875 C 2.253906 3.035156 3.710938 2.097656 4.921875 0.859375 C 6.128906 -0.378906 7.078125 -1.6875 7.765625 -3.0625 C 8.453125 -4.4375 8.894531 -5.644531 9.09375 -6.6875 C 9.257812 -7.414062 9.304688 -7.957031 9.234375 -8.3125 C 9.171875 -8.664062 9.125 -8.875 9.09375 -8.9375 C 9.03125 -8.9375 8.847656 -8.863281 8.546875 -8.71875 C 8.242188 -8.570312 7.804688 -8.21875 7.234375 -7.65625 C 6.660156 -7.101562 5.925781 -6.191406 5.03125 -4.921875 C 4.320312 -3.921875 3.570312 -2.671875 2.78125 -1.171875 C 2 0.316406 1.253906 1.929688 0.546875 3.671875 Z M 0.546875 3.671875 "/></g></g></g><g fill="#ad795b" fill-opacity="1"><g transform="translate(147.024477, 133.792632)"><g/></g></g><g fill="#ad795b" fill-opacity="1"><g transform="translate(167.075141, 133.792632)"><g><path d="M 38.890625 -48.34375 C 39.734375 -47.84375 40.5625 -47.144531 41.375 -46.25 C 42.195312 -45.363281 42.910156 -44.222656 43.515625 -42.828125 C 44.117188 -41.441406 44.507812 -39.75 44.6875 -37.75 C 44.875 -35.757812 44.785156 -33.410156 44.421875 -30.703125 C 43.484375 -24.335938 41.710938 -18.125 39.109375 -12.0625 C 36.515625 -6 33.242188 -0.449219 29.296875 4.578125 C 27.046875 7.390625 24.75 9.84375 22.40625 11.9375 C 20.0625 14.03125 17.800781 15.644531 15.625 16.78125 C 13.445312 17.914062 11.503906 18.484375 9.796875 18.484375 C 9.765625 18.484375 9.734375 18.484375 9.703125 18.484375 C 9.265625 18.484375 8.84375 18.4375 8.4375 18.34375 C 8.207031 19.675781 8.015625 20.894531 7.859375 22 C 7.710938 23.113281 7.601562 24.070312 7.53125 24.875 C 7.601562 24.707031 7.671875 24.539062 7.734375 24.375 C 7.835938 24.101562 8.015625 23.914062 8.265625 23.8125 C 8.515625 23.71875 8.757812 23.71875 9 23.8125 C 9.257812 23.914062 9.441406 24.09375 9.546875 24.34375 C 9.648438 24.59375 9.648438 24.835938 9.546875 25.078125 C 9.015625 26.378906 8.546875 27.347656 8.140625 27.984375 C 7.734375 28.617188 7.296875 28.9375 6.828125 28.9375 C 6.734375 28.9375 6.617188 28.90625 6.484375 28.84375 C 6.242188 28.78125 6.039062 28.617188 5.875 28.359375 C 5.707031 28.109375 5.609375 27.625 5.578125 26.90625 C 5.546875 26.1875 5.601562 25.082031 5.75 23.59375 C 5.90625 22.101562 6.203125 20.101562 6.640625 17.59375 C 5.265625 16.65625 4.457031 15.113281 4.21875 12.96875 C 4.1875 12.695312 4.253906 12.453125 4.421875 12.234375 C 4.585938 12.015625 4.804688 11.890625 5.078125 11.859375 C 5.347656 11.828125 5.582031 11.894531 5.78125 12.0625 C 5.976562 12.226562 6.09375 12.445312 6.125 12.71875 C 6.257812 13.820312 6.546875 14.675781 6.984375 15.28125 C 7.453125 12.59375 8.046875 9.335938 8.765625 5.515625 C 9.484375 1.703125 10.363281 -2.804688 11.40625 -8.015625 C 12.445312 -13.222656 13.671875 -19.257812 15.078125 -26.125 C 15.742188 -29.507812 16.378906 -32.707031 16.984375 -35.71875 C 17.585938 -38.738281 18.140625 -41.457031 18.640625 -43.875 C 18.109375 -43.53125 17.609375 -43.191406 17.140625 -42.859375 C 15.222656 -41.484375 13.398438 -39.847656 11.671875 -37.953125 C 9.953125 -36.066406 8.472656 -33.941406 7.234375 -31.578125 C 5.992188 -29.222656 5.144531 -26.6875 4.6875 -23.96875 C 4.238281 -21.257812 4.351562 -18.410156 5.03125 -15.421875 C 5.0625 -15.160156 5.007812 -14.921875 4.875 -14.703125 C 4.738281 -14.484375 4.535156 -14.335938 4.265625 -14.265625 C 4.003906 -14.234375 3.765625 -14.285156 3.546875 -14.421875 C 3.328125 -14.554688 3.179688 -14.757812 3.109375 -15.03125 C 2.410156 -18.238281 2.296875 -21.300781 2.765625 -24.21875 C 3.234375 -27.132812 4.128906 -29.847656 5.453125 -32.359375 C 6.773438 -34.867188 8.359375 -37.144531 10.203125 -39.1875 C 12.046875 -41.238281 13.972656 -42.984375 15.984375 -44.421875 C 17.015625 -45.160156 18.050781 -45.832031 19.09375 -46.4375 C 19.363281 -47.84375 19.597656 -49.046875 19.796875 -50.046875 C 19.828125 -50.316406 19.953125 -50.523438 20.171875 -50.671875 C 20.390625 -50.828125 20.632812 -50.867188 20.90625 -50.796875 C 21.175781 -50.765625 21.382812 -50.640625 21.53125 -50.421875 C 21.6875 -50.203125 21.742188 -49.960938 21.703125 -49.703125 C 21.566406 -49.097656 21.4375 -48.375 21.3125 -47.53125 C 24.59375 -49.101562 27.789062 -49.972656 30.90625 -50.140625 C 34.019531 -50.316406 36.679688 -49.71875 38.890625 -48.34375 Z M 42.515625 -30.953125 C 43.046875 -34.867188 42.925781 -38.160156 42.15625 -40.828125 C 41.382812 -43.492188 39.960938 -45.460938 37.890625 -46.734375 C 35.804688 -47.972656 33.238281 -48.445312 30.1875 -48.15625 C 27.144531 -47.875 24.035156 -46.878906 20.859375 -45.171875 C 20.347656 -42.628906 19.757812 -39.695312 19.09375 -36.375 C 18.425781 -33.0625 17.707031 -29.515625 16.9375 -25.734375 C 16.257812 -22.441406 15.546875 -18.925781 14.796875 -15.1875 C 14.046875 -11.457031 13.300781 -7.695312 12.5625 -3.90625 C 11.820312 -0.125 11.117188 3.503906 10.453125 6.984375 C 9.785156 10.460938 9.21875 13.613281 8.75 16.4375 C 9.050781 16.5 9.367188 16.546875 9.703125 16.578125 C 9.734375 16.578125 9.765625 16.578125 9.796875 16.578125 C 11.035156 16.578125 12.601562 16.109375 14.5 15.171875 C 16.394531 14.234375 18.476562 12.789062 20.75 10.84375 C 23.03125 8.90625 25.359375 6.410156 27.734375 3.359375 C 28.878906 1.953125 30.160156 0.152344 31.578125 -2.03125 C 33.003906 -4.226562 34.4375 -6.773438 35.875 -9.671875 C 37.320312 -12.566406 38.640625 -15.796875 39.828125 -19.359375 C 41.015625 -22.929688 41.910156 -26.796875 42.515625 -30.953125 Z M 42.515625 -30.953125 "/></g></g></g><g fill="#ad795b" fill-opacity="1"><g transform="translate(214.46273, 133.792632)"><g><path d="M 16.984375 -11.203125 C 17.222656 -11.066406 17.359375 -10.863281 17.390625 -10.59375 C 17.421875 -10.332031 17.367188 -10.101562 17.234375 -9.90625 C 15.253906 -7.15625 13.441406 -4.882812 11.796875 -3.09375 C 10.160156 -1.300781 8.523438 0.179688 6.890625 1.359375 C 5.648438 2.222656 4.425781 2.65625 3.21875 2.65625 C 2.28125 2.65625 1.457031 2.40625 0.75 1.90625 C 0.28125 1.570312 -0.175781 0.976562 -0.625 0.125 C -1.082031 -0.726562 -1.328125 -1.96875 -1.359375 -3.59375 C -1.390625 -5.21875 -0.988281 -7.351562 -0.15625 -10 C -0.15625 -10 -0.15625 -10.015625 -0.15625 -10.046875 C 0.851562 -13.265625 2.035156 -15.71875 3.390625 -17.40625 C 4.742188 -19.101562 5.910156 -19.96875 6.890625 -20 C 7.660156 -20.03125 8.160156 -19.695312 8.390625 -19 C 8.753906 -18.019531 8.316406 -16.632812 7.078125 -14.84375 C 5.835938 -13.050781 4.015625 -11.148438 1.609375 -9.140625 C 0.867188 -6.796875 0.515625 -4.960938 0.546875 -3.640625 C 0.585938 -2.316406 0.773438 -1.363281 1.109375 -0.78125 C 1.441406 -0.195312 1.707031 0.179688 1.90625 0.359375 C 2.914062 1.085938 4.207031 0.882812 5.78125 -0.25 C 7.320312 -1.320312 8.878906 -2.71875 10.453125 -4.4375 C 12.023438 -6.164062 13.75 -8.351562 15.625 -11 C 15.789062 -11.207031 16.007812 -11.332031 16.28125 -11.375 C 16.550781 -11.425781 16.785156 -11.367188 16.984375 -11.203125 Z M 6.53125 -17.890625 C 6.164062 -17.648438 5.660156 -17.15625 5.015625 -16.40625 C 4.378906 -15.65625 3.726562 -14.554688 3.0625 -13.109375 C 4.269531 -14.285156 5.125 -15.285156 5.625 -16.109375 C 6.125 -16.929688 6.425781 -17.523438 6.53125 -17.890625 Z M 6.53125 -17.890625 "/></g></g></g><g fill="#ad795b" fill-opacity="1"><g transform="translate(233.709377, 133.792632)"><g><path d="M 22.359375 -11.5 C 22.554688 -11.332031 22.671875 -11.113281 22.703125 -10.84375 C 22.742188 -10.582031 22.664062 -10.351562 22.46875 -10.15625 C 21.488281 -9.007812 20.410156 -7.75 19.234375 -6.375 C 18.066406 -5.007812 16.921875 -3.671875 15.796875 -2.359375 C 14.679688 -1.054688 13.71875 0.0703125 12.90625 1.03125 C 12.101562 1.988281 11.570312 2.632812 11.3125 2.96875 C 10.738281 3.695312 10.179688 4.414062 9.640625 5.125 C 10.078125 7.070312 10.117188 8.90625 9.765625 10.625 C 9.421875 12.351562 8.835938 13.882812 8.015625 15.21875 C 7.191406 16.5625 6.328125 17.601562 5.421875 18.34375 C 4.484375 19.144531 3.613281 19.546875 2.8125 19.546875 C 2.3125 19.546875 1.894531 19.378906 1.5625 19.046875 C 0.988281 18.503906 0.789062 17.707031 0.96875 16.65625 C 1.15625 15.601562 1.582031 14.40625 2.25 13.0625 C 2.925781 11.726562 3.734375 10.335938 4.671875 8.890625 C 5.609375 7.453125 6.5625 6.0625 7.53125 4.71875 C 7.363281 4.113281 7.128906 3.5 6.828125 2.875 C 6.523438 2.257812 6.175781 1.632812 5.78125 1 C 4.40625 -1.070312 3.238281 -3.019531 2.28125 -4.84375 C 1.332031 -6.675781 0.890625 -8.34375 0.953125 -9.84375 C 1.117188 -12.625 2.359375 -14.703125 4.671875 -16.078125 C 5.609375 -16.648438 6.597656 -16.984375 7.640625 -17.078125 C 8.679688 -17.179688 9.632812 -17.03125 10.5 -16.625 C 10.738281 -16.5 10.898438 -16.304688 10.984375 -16.046875 C 11.066406 -15.796875 11.054688 -15.554688 10.953125 -15.328125 C 10.816406 -15.085938 10.625 -14.925781 10.375 -14.84375 C 10.125 -14.757812 9.878906 -14.769531 9.640625 -14.875 C 8.441406 -15.445312 7.117188 -15.296875 5.671875 -14.421875 C 3.929688 -13.378906 3.015625 -11.820312 2.921875 -9.75 C 2.847656 -8.507812 3.265625 -7.050781 4.171875 -5.375 C 5.078125 -3.695312 6.148438 -1.9375 7.390625 -0.09375 C 8.023438 0.875 8.539062 1.859375 8.9375 2.859375 C 9.207031 2.523438 9.492188 2.160156 9.796875 1.765625 C 10.066406 1.421875 10.609375 0.765625 11.421875 -0.203125 C 12.242188 -1.171875 13.207031 -2.304688 14.3125 -3.609375 C 15.425781 -4.921875 16.578125 -6.265625 17.765625 -7.640625 C 18.953125 -9.015625 20.03125 -10.269531 21 -11.40625 C 21.164062 -11.601562 21.382812 -11.71875 21.65625 -11.75 C 21.925781 -11.789062 22.160156 -11.707031 22.359375 -11.5 Z M 6.03125 14.78125 C 6.257812 14.40625 6.539062 13.875 6.875 13.1875 C 7.21875 12.5 7.515625 11.660156 7.765625 10.671875 C 8.015625 9.691406 8.085938 8.597656 7.984375 7.390625 C 6.441406 9.566406 5.296875 11.375 4.546875 12.8125 C 3.796875 14.25 3.3125 15.34375 3.09375 16.09375 C 2.875 16.851562 2.796875 17.351562 2.859375 17.59375 C 3.097656 17.59375 3.519531 17.375 4.125 16.9375 C 4.726562 16.5 5.363281 15.78125 6.03125 14.78125 Z M 6.03125 14.78125 "/></g></g></g><g fill="#ad795b" fill-opacity="1"><g transform="translate(258.5842, 133.792632)"><g><path d="M 14.71875 -11.453125 C 14.957031 -11.316406 15.097656 -11.113281 15.140625 -10.84375 C 15.191406 -10.582031 15.15625 -10.332031 15.03125 -10.09375 C 14.382812 -9.09375 13.578125 -7.972656 12.609375 -6.734375 C 11.640625 -5.492188 10.582031 -4.3125 9.4375 -3.1875 C 8.300781 -2.0625 7.171875 -1.128906 6.046875 -0.390625 C 4.929688 0.335938 3.90625 0.703125 2.96875 0.703125 C 2.5625 0.703125 2.207031 0.632812 1.90625 0.5 C 0.769531 0 0.140625 -1.210938 0.015625 -3.140625 C -0.0976562 -5.066406 0.296875 -7.789062 1.203125 -11.3125 C 1.273438 -11.570312 1.425781 -11.769531 1.65625 -11.90625 C 1.894531 -12.039062 2.128906 -12.078125 2.359375 -12.015625 C 2.628906 -11.941406 2.832031 -11.785156 2.96875 -11.546875 C 3.101562 -11.316406 3.132812 -11.085938 3.0625 -10.859375 C 2.53125 -8.710938 2.195312 -7.007812 2.0625 -5.75 C 1.925781 -4.5 1.898438 -3.550781 1.984375 -2.90625 C 2.066406 -2.269531 2.191406 -1.84375 2.359375 -1.625 C 2.523438 -1.414062 2.625 -1.3125 2.65625 -1.3125 C 3.09375 -1.101562 3.726562 -1.242188 4.5625 -1.734375 C 5.40625 -2.222656 6.34375 -2.941406 7.375 -3.890625 C 8.414062 -4.847656 9.460938 -5.953125 10.515625 -7.203125 C 11.578125 -8.460938 12.523438 -9.78125 13.359375 -11.15625 C 13.535156 -11.382812 13.75 -11.523438 14 -11.578125 C 14.25 -11.628906 14.488281 -11.585938 14.71875 -11.453125 Z M 2.859375 -15.484375 C 2.191406 -15.515625 1.847656 -15.703125 1.828125 -16.046875 C 1.816406 -16.398438 1.96875 -16.757812 2.28125 -17.125 C 2.601562 -17.5 2.929688 -17.753906 3.265625 -17.890625 C 3.796875 -18.054688 4.1875 -18.019531 4.4375 -17.78125 C 4.695312 -17.550781 4.816406 -17.25 4.796875 -16.875 C 4.785156 -16.507812 4.617188 -16.175781 4.296875 -15.875 C 3.972656 -15.570312 3.492188 -15.441406 2.859375 -15.484375 Z M 2.859375 -15.484375 "/></g></g></g><g clip-path="url(#033af7834f)"><g fill="#ad795b" fill-opacity="1"><g transform="translate(275.921284, 133.792632)"><g><path d="M 23.0625 -11.15625 C 23.195312 -10.914062 23.238281 -10.660156 23.1875 -10.390625 C 23.132812 -10.128906 22.992188 -9.929688 22.765625 -9.796875 C 20.816406 -8.523438 18.601562 -7.039062 16.125 -5.34375 C 13.644531 -3.65625 11.117188 -1.707031 8.546875 0.5 C 7.398438 7.332031 6.175781 13.203125 4.875 18.109375 C 3.570312 23.023438 2.222656 27.082031 0.828125 30.28125 C -0.554688 33.476562 -1.921875 35.910156 -3.265625 37.578125 C -4.609375 39.253906 -5.878906 40.265625 -7.078125 40.609375 C -7.453125 40.703125 -7.804688 40.75 -8.140625 40.75 C -9.210938 40.75 -10.132812 40.28125 -10.90625 39.34375 C -11.570312 38.476562 -12.039062 37.28125 -12.3125 35.75 C -12.582031 34.226562 -12.632812 32.53125 -12.46875 30.65625 C -12.289062 29.175781 -11.898438 27.304688 -11.296875 25.046875 C -10.703125 22.785156 -9.632812 20.265625 -8.09375 17.484375 C -6.050781 13.796875 -3.738281 10.460938 -1.15625 7.484375 C 1.425781 4.503906 4.054688 1.839844 6.734375 -0.5 C 6.960938 -1.875 7.1875 -3.3125 7.40625 -4.8125 C 7.625 -6.320312 7.835938 -7.867188 8.046875 -9.453125 C 7.578125 -8.742188 7.085938 -8.03125 6.578125 -7.3125 C 6.078125 -6.59375 5.578125 -5.894531 5.078125 -5.21875 C 4.578125 -4.582031 4.015625 -3.988281 3.390625 -3.4375 C 2.773438 -2.882812 2.128906 -2.710938 1.453125 -2.921875 C 1.148438 -2.984375 0.859375 -3.171875 0.578125 -3.484375 C 0.296875 -3.804688 0.117188 -4.351562 0.046875 -5.125 C -0.0117188 -5.957031 0.078125 -7.035156 0.328125 -8.359375 C 0.578125 -9.679688 0.96875 -11.046875 1.5 -12.453125 C 2.039062 -13.867188 2.710938 -15.15625 3.515625 -16.3125 C 4.316406 -17.46875 5.222656 -18.296875 6.234375 -18.796875 C 6.835938 -19.097656 7.566406 -19.253906 8.421875 -19.265625 C 9.273438 -19.285156 10.203125 -18.84375 11.203125 -17.9375 C 11.398438 -17.738281 11.507812 -17.515625 11.53125 -17.265625 C 11.550781 -17.015625 11.457031 -16.785156 11.25 -16.578125 C 11.082031 -16.378906 10.863281 -16.269531 10.59375 -16.25 C 10.332031 -16.238281 10.101562 -16.316406 9.90625 -16.484375 C 8.695312 -17.585938 7.472656 -17.585938 6.234375 -16.484375 C 5.460938 -15.773438 4.78125 -14.851562 4.1875 -13.71875 C 3.601562 -12.582031 3.128906 -11.410156 2.765625 -10.203125 C 2.398438 -8.992188 2.15625 -7.894531 2.03125 -6.90625 C 1.914062 -5.914062 1.925781 -5.238281 2.0625 -4.875 C 2.164062 -4.9375 2.34375 -5.078125 2.59375 -5.296875 C 2.84375 -5.515625 3.148438 -5.875 3.515625 -6.375 C 4.179688 -7.25 4.859375 -8.1875 5.546875 -9.1875 C 6.234375 -10.195312 6.863281 -11.132812 7.4375 -12 C 8.007812 -12.875 8.425781 -13.5625 8.6875 -14.0625 C 8.957031 -14.5 9.34375 -14.632812 9.84375 -14.46875 C 10.351562 -14.332031 10.570312 -14 10.5 -13.46875 C 10.269531 -11.488281 10.023438 -9.578125 9.765625 -7.734375 C 9.515625 -5.890625 9.257812 -4.113281 9 -2.40625 C 11.34375 -4.320312 13.609375 -6.015625 15.796875 -7.484375 C 17.992188 -8.960938 19.960938 -10.269531 21.703125 -11.40625 C 21.941406 -11.570312 22.1875 -11.617188 22.4375 -11.546875 C 22.6875 -11.484375 22.894531 -11.351562 23.0625 -11.15625 Z M -7.640625 38.75 C -6.835938 38.507812 -5.878906 37.71875 -4.765625 36.375 C -3.660156 35.039062 -2.476562 32.984375 -1.21875 30.203125 C 0.0273438 27.421875 1.296875 23.769531 2.578125 19.25 C 3.867188 14.726562 5.085938 9.179688 6.234375 2.609375 C 3.921875 4.722656 1.675781 7.09375 -0.5 9.71875 C -2.675781 12.351562 -4.632812 15.257812 -6.375 18.4375 C -8.125 21.59375 -9.304688 24.515625 -9.921875 27.203125 C -10.546875 29.898438 -10.765625 32.195312 -10.578125 34.09375 C -10.390625 35.988281 -9.992188 37.335938 -9.390625 38.140625 C -8.890625 38.742188 -8.304688 38.945312 -7.640625 38.75 Z M -7.640625 38.75 "/></g></g></g></g><g fill="#ad795b" fill-opacity="1"><g transform="translate(301.248375, 133.792632)"><g><path d="M 20.25 -11.203125 C 20.488281 -11.066406 20.640625 -10.875 20.703125 -10.625 C 20.765625 -10.375 20.734375 -10.132812 20.609375 -9.90625 C 19.023438 -7.125 17.601562 -4.984375 16.34375 -3.484375 C 15.09375 -1.992188 13.816406 -1.332031 12.515625 -1.5 C 10.835938 -1.707031 9.515625 -3.519531 8.546875 -6.9375 C 8.210938 -8.039062 7.914062 -8.832031 7.65625 -9.3125 C 7.40625 -9.800781 7.203125 -10.101562 7.046875 -10.21875 C 6.898438 -10.34375 6.796875 -10.40625 6.734375 -10.40625 C 6.628906 -10.4375 6.425781 -10.332031 6.125 -10.09375 C 5.820312 -9.863281 5.382812 -9.347656 4.8125 -8.546875 C 4.25 -7.742188 3.546875 -6.492188 2.703125 -4.796875 C 1.867188 -3.109375 0.847656 -0.789062 -0.359375 2.15625 C -0.523438 2.5625 -0.804688 2.765625 -1.203125 2.765625 C -1.304688 2.765625 -1.390625 2.75 -1.453125 2.71875 C -2.023438 2.582031 -2.28125 2.226562 -2.21875 1.65625 C -2.039062 0.28125 -1.734375 -1.304688 -1.296875 -3.109375 C -0.867188 -4.921875 -0.394531 -6.765625 0.125 -8.640625 C 0.644531 -10.515625 1.125 -12.191406 1.5625 -13.671875 C 1.65625 -14.003906 1.742188 -14.3125 1.828125 -14.59375 C 1.910156 -14.882812 1.988281 -15.160156 2.0625 -15.421875 C 2.164062 -15.691406 2.332031 -15.882812 2.5625 -16 C 2.800781 -16.125 3.035156 -16.148438 3.265625 -16.078125 C 3.535156 -16.015625 3.734375 -15.863281 3.859375 -15.625 C 3.992188 -15.394531 4.015625 -15.144531 3.921875 -14.875 C 3.847656 -14.601562 3.769531 -14.328125 3.6875 -14.046875 C 3.601562 -13.765625 3.515625 -13.453125 3.421875 -13.109375 C 3.179688 -12.242188 2.910156 -11.289062 2.609375 -10.25 C 2.304688 -9.207031 2.003906 -8.148438 1.703125 -7.078125 C 2.847656 -9.222656 3.820312 -10.644531 4.625 -11.34375 C 5.425781 -12.050781 6.160156 -12.390625 6.828125 -12.359375 C 7.765625 -12.296875 8.5 -11.773438 9.03125 -10.796875 C 9.570312 -9.828125 10.03125 -8.707031 10.40625 -7.4375 C 10.90625 -5.695312 11.375 -4.59375 11.8125 -4.125 C 12.25 -3.65625 12.566406 -3.421875 12.765625 -3.421875 C 13.203125 -3.347656 13.710938 -3.585938 14.296875 -4.140625 C 14.878906 -4.691406 15.460938 -5.394531 16.046875 -6.25 C 16.640625 -7.101562 17.191406 -7.945312 17.703125 -8.78125 C 18.222656 -9.625 18.617188 -10.316406 18.890625 -10.859375 C 19.023438 -11.085938 19.226562 -11.234375 19.5 -11.296875 C 19.769531 -11.367188 20.019531 -11.335938 20.25 -11.203125 Z M 20.25 -11.203125 "/></g></g></g></g></g></svg>