<svg xmlns="http://www.w3.org/2000/svg" xmlns:xlink="http://www.w3.org/1999/xlink" width="600" zoomAndPan="magnify" viewBox="0 0 450 262.499992" height="350" preserveAspectRatio="xMidYMid meet" version="1.0"><defs><g/><clipPath id="ffc2fa4f4c"><path d="M 0.429688 0 L 449.570312 0 L 449.570312 262 L 0.429688 262 Z M 0.429688 0 " clip-rule="nonzero"/></clipPath><clipPath id="c4dae07635"><rect x="0" width="222" y="0" height="147"/></clipPath></defs><g clip-path="url(#ffc2fa4f4c)"><path fill="#ffffff" d="M 0.429688 0 L 449.570312 0 L 449.570312 262 L 0.429688 262 Z M 0.429688 0 " fill-opacity="1" fill-rule="nonzero"/><path fill="#ffffff" d="M 0.429688 0 L 449.570312 0 L 449.570312 262 L 0.429688 262 Z M 0.429688 0 " fill-opacity="1" fill-rule="nonzero"/></g><g transform="matrix(1, 0, 0, 1, 115, 66)"><g clip-path="url(#c4dae07635)"><g fill="#ad795b" fill-opacity="1"><g transform="translate(17.152121, 45.069107)"><g><path d="M 57.453125 -39.609375 C 57.546875 -38.109375 57.46875 -36.125 57.21875 -33.65625 C 56.976562 -31.195312 56.617188 -28.40625 56.140625 -25.28125 C 55.671875 -22.164062 55.117188 -18.867188 54.484375 -15.390625 C 53.859375 -11.921875 53.226562 -8.425781 52.59375 -4.90625 C 52.164062 -2.457031 51.722656 0.0390625 51.265625 2.59375 C 50.804688 5.144531 50.382812 7.59375 50 9.9375 C 49.613281 12.28125 49.3125 14.34375 49.09375 16.125 C 48.882812 17.914062 48.796875 19.253906 48.828125 20.140625 C 48.953125 19.929688 49.085938 19.703125 49.234375 19.453125 C 49.359375 19.242188 49.535156 19.109375 49.765625 19.046875 C 49.992188 18.984375 50.21875 19.015625 50.4375 19.140625 C 50.644531 19.253906 50.78125 19.425781 50.84375 19.65625 C 50.90625 19.894531 50.875 20.117188 50.75 20.328125 C 50.382812 20.941406 49.988281 21.5 49.5625 22 C 49.132812 22.507812 48.628906 22.671875 48.046875 22.484375 C 47.710938 22.328125 47.457031 22 47.28125 21.5 C 47.113281 21 47.050781 20.171875 47.09375 19.015625 C 47.144531 17.867188 47.304688 16.28125 47.578125 14.25 C 47.859375 12.21875 48.265625 9.609375 48.796875 6.421875 C 49.335938 3.242188 50.035156 -0.625 50.890625 -5.1875 C 51.472656 -8.550781 52.066406 -11.945312 52.671875 -15.375 C 53.285156 -18.800781 53.835938 -22.070312 54.328125 -25.1875 C 54.816406 -28.3125 55.191406 -31.113281 55.453125 -33.59375 C 55.710938 -36.070312 55.800781 -38.03125 55.71875 -39.46875 C 55.65625 -40.351562 55.53125 -41 55.34375 -41.40625 C 55.15625 -41.820312 54.972656 -42.046875 54.796875 -42.078125 C 54.796875 -42.078125 54.78125 -42.078125 54.75 -42.078125 C 54.4375 -42.078125 53.898438 -41.75 53.140625 -41.09375 C 52.378906 -40.4375 51.421875 -39.265625 50.265625 -37.578125 C 49.117188 -35.898438 47.769531 -33.515625 46.21875 -30.421875 C 44.625 -27.242188 42.648438 -22.707031 40.296875 -16.8125 C 37.941406 -10.925781 35.429688 -3.363281 32.765625 5.875 C 32.609375 6.425781 32.253906 6.640625 31.703125 6.515625 C 31.160156 6.390625 30.929688 6.050781 31.015625 5.5 C 33.160156 -7.101562 34.3125 -16.570312 34.46875 -22.90625 C 34.53125 -24.863281 34.5 -26.398438 34.375 -27.515625 C 34.25 -28.628906 34.09375 -29.4375 33.90625 -29.9375 C 33.726562 -30.445312 33.566406 -30.769531 33.421875 -30.90625 C 33.285156 -31.039062 33.203125 -31.125 33.171875 -31.15625 C 33.148438 -31.15625 33.007812 -31.109375 32.75 -31.015625 C 32.488281 -30.929688 32.082031 -30.628906 31.53125 -30.109375 C 30.976562 -29.585938 30.265625 -28.679688 29.390625 -27.390625 C 28.515625 -26.109375 27.460938 -24.289062 26.234375 -21.9375 C 25.015625 -19.582031 23.582031 -16.519531 21.9375 -12.75 C 20.25 -8.863281 18.554688 -4.664062 16.859375 -0.15625 C 15.160156 4.351562 13.53125 8.976562 11.96875 13.71875 C 10.414062 18.457031 8.992188 23.109375 7.703125 27.671875 C 7.703125 27.671875 7.703125 27.6875 7.703125 27.71875 C 7.492188 28.269531 7.273438 28.757812 7.046875 29.1875 C 6.816406 29.613281 6.519531 29.828125 6.15625 29.828125 C 6.0625 29.828125 5.953125 29.8125 5.828125 29.78125 C 5.398438 29.625 5.175781 29.296875 5.15625 28.796875 C 5.144531 28.296875 5.21875 27.507812 5.375 26.4375 C 5.582031 25 5.945312 22.929688 6.46875 20.234375 C 7.382812 15.617188 8.734375 9.285156 10.515625 1.234375 C 11.304688 -2.460938 12.109375 -6.109375 12.921875 -9.703125 C 13.734375 -13.296875 14.488281 -16.628906 15.1875 -19.703125 C 15.894531 -22.785156 16.507812 -25.425781 17.03125 -27.625 C 17.550781 -29.832031 17.914062 -31.378906 18.125 -32.265625 C 18.613281 -34.367188 18.863281 -35.960938 18.875 -37.046875 C 18.894531 -38.140625 18.804688 -38.898438 18.609375 -39.328125 C 18.410156 -39.753906 18.25 -40.015625 18.125 -40.109375 C 17.789062 -40.316406 17.28125 -40.285156 16.59375 -40.015625 C 15.90625 -39.742188 15.113281 -39.269531 14.21875 -38.59375 C 13.03125 -37.675781 11.804688 -36.484375 10.546875 -35.015625 C 9.296875 -33.546875 8.113281 -31.9375 7 -30.1875 C 5.882812 -28.445312 4.9375 -26.679688 4.15625 -24.890625 C 3.375 -23.109375 2.835938 -21.390625 2.546875 -19.734375 C 2.253906 -18.078125 2.320312 -16.625 2.75 -15.375 C 3.632812 -12.738281 6.175781 -11.390625 10.375 -11.328125 C 10.613281 -11.328125 10.816406 -11.234375 10.984375 -11.046875 C 11.160156 -10.867188 11.25 -10.660156 11.25 -10.421875 C 11.25 -10.171875 11.15625 -9.960938 10.96875 -9.796875 C 10.78125 -9.628906 10.582031 -9.546875 10.375 -9.546875 C 10.375 -9.546875 10.363281 -9.546875 10.34375 -9.546875 C 10.332031 -9.546875 10.328125 -9.546875 10.328125 -9.546875 C 9.191406 -9.578125 7.992188 -9.738281 6.734375 -10.03125 C 5.484375 -10.320312 4.347656 -10.84375 3.328125 -11.59375 C 2.304688 -12.34375 1.550781 -13.421875 1.0625 -14.828125 C 0.6875 -15.953125 0.535156 -17.140625 0.609375 -18.390625 C 0.691406 -19.648438 0.914062 -20.898438 1.28125 -22.140625 C 1.644531 -23.378906 2.066406 -24.539062 2.546875 -25.625 C 3.023438 -26.71875 3.476562 -27.660156 3.90625 -28.453125 C 5.15625 -30.742188 6.601562 -32.929688 8.25 -35.015625 C 9.90625 -37.097656 11.546875 -38.765625 13.171875 -40.015625 C 14.734375 -41.210938 15.988281 -41.847656 16.9375 -41.921875 C 17.882812 -41.992188 18.601562 -41.878906 19.09375 -41.578125 C 20.863281 -40.441406 21.109375 -37.195312 19.828125 -31.84375 C 19.484375 -30.4375 19.046875 -28.578125 18.515625 -26.265625 C 17.984375 -23.960938 17.382812 -21.359375 16.71875 -18.453125 C 16.0625 -15.546875 15.363281 -12.476562 14.625 -9.25 C 13.894531 -6.019531 13.171875 -2.773438 12.453125 0.484375 C 11.734375 3.742188 11.046875 6.894531 10.390625 9.9375 C 9.734375 12.976562 9.160156 15.753906 8.671875 18.265625 C 9.835938 14.566406 11.0625 10.863281 12.34375 7.15625 C 13.625 3.457031 14.9375 -0.132812 16.28125 -3.625 C 17.632812 -7.113281 18.984375 -10.398438 20.328125 -13.484375 C 22.097656 -17.554688 23.65625 -20.851562 25 -23.375 C 26.351562 -25.90625 27.519531 -27.84375 28.5 -29.1875 C 29.476562 -30.53125 30.300781 -31.460938 30.96875 -31.984375 C 31.644531 -32.503906 32.1875 -32.796875 32.59375 -32.859375 C 33.007812 -32.921875 33.34375 -32.921875 33.59375 -32.859375 C 34.019531 -32.765625 34.429688 -32.488281 34.828125 -32.03125 C 35.222656 -31.570312 35.550781 -30.796875 35.8125 -29.703125 C 36.070312 -28.617188 36.222656 -27.09375 36.265625 -25.125 C 36.316406 -23.15625 36.210938 -20.625 35.953125 -17.53125 C 35.691406 -14.4375 35.253906 -10.644531 34.640625 -6.15625 C 36.515625 -11.8125 38.40625 -16.972656 40.3125 -21.640625 C 42.226562 -26.304688 44.085938 -30.3125 45.890625 -33.65625 C 47.691406 -37.007812 49.375 -39.570312 50.9375 -41.34375 C 52.5 -43.125 53.859375 -43.953125 55.015625 -43.828125 C 56.453125 -43.671875 57.265625 -42.265625 57.453125 -39.609375 Z M 57.453125 -39.609375 "/></g></g></g><g fill="#ad795b" fill-opacity="1"><g transform="translate(75.298736, 45.069107)"><g><path d="M 13.453125 -10.46875 C 13.660156 -10.34375 13.785156 -10.15625 13.828125 -9.90625 C 13.878906 -9.664062 13.84375 -9.4375 13.71875 -9.21875 C 13.132812 -8.300781 12.398438 -7.273438 11.515625 -6.140625 C 10.628906 -5.015625 9.664062 -3.9375 8.625 -2.90625 C 7.582031 -1.882812 6.550781 -1.035156 5.53125 -0.359375 C 4.507812 0.304688 3.566406 0.640625 2.703125 0.640625 C 2.335938 0.640625 2.019531 0.578125 1.75 0.453125 C 0.707031 -0.00390625 0.128906 -1.109375 0.015625 -2.859375 C -0.0859375 -4.617188 0.269531 -7.109375 1.09375 -10.328125 C 1.15625 -10.566406 1.289062 -10.75 1.5 -10.875 C 1.71875 -11 1.9375 -11.03125 2.15625 -10.96875 C 2.40625 -10.90625 2.585938 -10.765625 2.703125 -10.546875 C 2.828125 -10.335938 2.859375 -10.125 2.796875 -9.90625 C 2.304688 -7.945312 2 -6.394531 1.875 -5.25 C 1.757812 -4.101562 1.738281 -3.238281 1.8125 -2.65625 C 1.882812 -2.082031 2 -1.691406 2.15625 -1.484375 C 2.3125 -1.285156 2.40625 -1.1875 2.4375 -1.1875 C 2.832031 -1.007812 3.410156 -1.140625 4.171875 -1.578125 C 4.941406 -2.023438 5.800781 -2.679688 6.75 -3.546875 C 7.695312 -4.421875 8.648438 -5.429688 9.609375 -6.578125 C 10.578125 -7.734375 11.441406 -8.9375 12.203125 -10.1875 C 12.359375 -10.40625 12.550781 -10.535156 12.78125 -10.578125 C 13.007812 -10.617188 13.234375 -10.582031 13.453125 -10.46875 Z M 2.609375 -14.140625 C 2.003906 -14.171875 1.691406 -14.34375 1.671875 -14.65625 C 1.660156 -14.976562 1.800781 -15.304688 2.09375 -15.640625 C 2.382812 -15.984375 2.679688 -16.21875 2.984375 -16.34375 C 3.472656 -16.488281 3.832031 -16.453125 4.0625 -16.234375 C 4.289062 -16.023438 4.394531 -15.753906 4.375 -15.421875 C 4.363281 -15.085938 4.210938 -14.78125 3.921875 -14.5 C 3.628906 -14.226562 3.191406 -14.109375 2.609375 -14.140625 Z M 2.609375 -14.140625 "/></g></g></g><g fill="#ad795b" fill-opacity="1"><g transform="translate(86.909709, 45.069107)"><g><path d="M 15.1875 -10.421875 C 15.375 -10.296875 15.5 -10.109375 15.5625 -9.859375 C 15.625 -9.617188 15.578125 -9.40625 15.421875 -9.21875 C 13.953125 -6.957031 12.5 -4.863281 11.0625 -2.9375 C 9.625 -1.007812 8.207031 0.546875 6.8125 1.734375 C 5.425781 2.929688 4.070312 3.53125 2.75 3.53125 C 2.476562 3.53125 2.203125 3.5 1.921875 3.4375 C 0.828125 3.195312 -0.0078125 2.554688 -0.59375 1.515625 C -1.050781 0.691406 -1.316406 -0.257812 -1.390625 -1.34375 C -1.472656 -2.4375 -1.421875 -3.546875 -1.234375 -4.671875 C -1.054688 -5.804688 -0.78125 -6.863281 -0.40625 -7.84375 C 0.195312 -9.53125 0.960938 -10.832031 1.890625 -11.75 C 2.828125 -12.664062 3.710938 -12.988281 4.546875 -12.71875 C 4.691406 -12.6875 4.910156 -12.546875 5.203125 -12.296875 C 5.492188 -12.054688 5.71875 -11.644531 5.875 -11.0625 C 6.03125 -10.476562 5.953125 -9.632812 5.640625 -8.53125 C 5.578125 -8.289062 5.445312 -8.109375 5.25 -7.984375 C 5.050781 -7.859375 4.832031 -7.828125 4.59375 -7.890625 C 4.34375 -7.953125 4.15625 -8.085938 4.03125 -8.296875 C 3.914062 -8.515625 3.890625 -8.734375 3.953125 -8.953125 C 4.128906 -9.679688 4.191406 -10.207031 4.140625 -10.53125 C 4.097656 -10.851562 4.050781 -11.03125 4 -11.0625 C 3.875 -11.0625 3.519531 -10.804688 2.9375 -10.296875 C 2.351562 -9.796875 1.785156 -8.765625 1.234375 -7.203125 C 0.679688 -5.765625 0.382812 -4.300781 0.34375 -2.8125 C 0.300781 -1.332031 0.507812 -0.179688 0.96875 0.640625 C 1.269531 1.222656 1.710938 1.578125 2.296875 1.703125 C 3.117188 1.878906 4.050781 1.59375 5.09375 0.84375 C 6.132812 0.09375 7.179688 -0.910156 8.234375 -2.171875 C 9.296875 -3.441406 10.320312 -4.796875 11.3125 -6.234375 C 12.300781 -7.671875 13.179688 -8.988281 13.953125 -10.1875 C 14.078125 -10.375 14.257812 -10.492188 14.5 -10.546875 C 14.75 -10.609375 14.976562 -10.566406 15.1875 -10.421875 Z M 15.1875 -10.421875 "/></g></g></g><g fill="#ad795b" fill-opacity="1"><g transform="translate(100.494088, 45.069107)"><g><path d="M 21.75 -10.515625 C 21.9375 -10.390625 22.0625 -10.203125 22.125 -9.953125 C 22.1875 -9.710938 22.15625 -9.484375 22.03125 -9.265625 C 20.5625 -6.910156 19.257812 -5 18.125 -3.53125 C 16.988281 -2.0625 16.015625 -0.941406 15.203125 -0.171875 C 14.398438 0.585938 13.722656 1.101562 13.171875 1.375 C 12.617188 1.65625 12.171875 1.796875 11.828125 1.796875 C 11.492188 1.796875 11.238281 1.78125 11.0625 1.75 C 10.351562 1.5625 9.832031 1.140625 9.5 0.484375 C 9.164062 -0.167969 8.941406 -0.847656 8.828125 -1.546875 C 8.722656 -2.253906 8.65625 -2.796875 8.625 -3.171875 C 8.5625 -4.234375 8.4375 -4.945312 8.25 -5.3125 C 8.070312 -5.6875 7.9375 -5.875 7.84375 -5.875 C 7.8125 -5.875 7.796875 -5.875 7.796875 -5.875 C 7.398438 -5.875 6.742188 -5.316406 5.828125 -4.203125 C 4.910156 -3.085938 3.832031 -1.335938 2.59375 1.046875 C 1.351562 3.441406 0.0585938 6.550781 -1.28125 10.375 C -1.40625 10.769531 -1.679688 10.96875 -2.109375 10.96875 C -2.171875 10.96875 -2.234375 10.96875 -2.296875 10.96875 C -2.785156 10.84375 -3.015625 10.535156 -2.984375 10.046875 C -2.953125 9.523438 -2.8125 8.59375 -2.5625 7.25 C -2.320312 5.90625 -1.992188 4.289062 -1.578125 2.40625 C -1.171875 0.53125 -0.710938 -1.503906 -0.203125 -3.703125 C 0.296875 -5.910156 0.8125 -8.144531 1.34375 -10.40625 C 1.882812 -12.675781 2.398438 -14.84375 2.890625 -16.90625 C 3.378906 -18.976562 3.820312 -20.835938 4.21875 -22.484375 C 4.613281 -24.140625 4.929688 -25.460938 5.171875 -26.453125 C 5.421875 -27.453125 5.546875 -27.96875 5.546875 -28 C 6.253906 -30.8125 7.035156 -33.367188 7.890625 -35.671875 C 8.742188 -37.984375 9.59375 -39.84375 10.4375 -41.25 C 11.28125 -42.65625 12.023438 -43.421875 12.671875 -43.546875 C 13.191406 -43.640625 13.585938 -43.488281 13.859375 -43.09375 C 14.285156 -42.476562 14.242188 -41.195312 13.734375 -39.25 C 13.234375 -37.3125 12.316406 -34.859375 10.984375 -31.890625 C 9.660156 -28.921875 7.972656 -25.601562 5.921875 -21.9375 C 5.367188 -19.644531 4.765625 -17.132812 4.109375 -14.40625 C 3.453125 -11.6875 2.804688 -8.945312 2.171875 -6.1875 C 1.546875 -3.4375 0.972656 -0.898438 0.453125 1.421875 C 1.285156 -0.316406 2.132812 -1.890625 3 -3.296875 C 3.875 -4.710938 4.742188 -5.804688 5.609375 -6.578125 C 6.484375 -7.359375 7.304688 -7.707031 8.078125 -7.625 C 8.753906 -7.53125 9.25 -7.191406 9.5625 -6.609375 C 9.882812 -6.023438 10.097656 -5.40625 10.203125 -4.75 C 10.316406 -4.09375 10.375 -3.609375 10.375 -3.296875 C 10.46875 -2.171875 10.617188 -1.347656 10.828125 -0.828125 C 11.046875 -0.304688 11.257812 -0.03125 11.46875 0 C 11.53125 0.03125 11.738281 -0.00390625 12.09375 -0.109375 C 12.445312 -0.222656 12.96875 -0.566406 13.65625 -1.140625 C 14.34375 -1.722656 15.25 -2.722656 16.375 -4.140625 C 17.507812 -5.566406 18.890625 -7.597656 20.515625 -10.234375 C 20.640625 -10.421875 20.820312 -10.539062 21.0625 -10.59375 C 21.3125 -10.65625 21.539062 -10.628906 21.75 -10.515625 Z M 12.34375 -40.984375 C 11.820312 -40.210938 11.125 -38.851562 10.25 -36.90625 C 9.382812 -34.96875 8.507812 -32.332031 7.625 -29 C 9.175781 -32.09375 10.3125 -34.632812 11.03125 -36.625 C 11.75 -38.613281 12.1875 -40.066406 12.34375 -40.984375 Z M 12.34375 -40.984375 "/></g></g></g><g fill="#ad795b" fill-opacity="1"><g transform="translate(120.274033, 45.069107)"><g><path d="M 15.515625 -10.234375 C 15.722656 -10.109375 15.84375 -9.921875 15.875 -9.671875 C 15.90625 -9.429688 15.859375 -9.222656 15.734375 -9.046875 C 13.929688 -6.535156 12.28125 -4.457031 10.78125 -2.8125 C 9.28125 -1.175781 7.78125 0.171875 6.28125 1.234375 C 5.15625 2.035156 4.039062 2.4375 2.9375 2.4375 C 2.082031 2.4375 1.332031 2.207031 0.6875 1.75 C 0.257812 1.4375 -0.15625 0.890625 -0.5625 0.109375 C -0.976562 -0.671875 -1.203125 -1.800781 -1.234375 -3.28125 C -1.265625 -4.757812 -0.898438 -6.707031 -0.140625 -9.125 C -0.140625 -9.125 -0.140625 -9.140625 -0.140625 -9.171875 C 0.773438 -12.109375 1.851562 -14.347656 3.09375 -15.890625 C 4.332031 -17.441406 5.394531 -18.234375 6.28125 -18.265625 C 6.988281 -18.296875 7.445312 -17.988281 7.65625 -17.34375 C 8 -16.457031 7.601562 -15.195312 6.46875 -13.5625 C 5.332031 -11.925781 3.664062 -10.191406 1.46875 -8.359375 C 0.789062 -6.210938 0.46875 -4.535156 0.5 -3.328125 C 0.53125 -2.117188 0.695312 -1.242188 1 -0.703125 C 1.3125 -0.171875 1.5625 0.171875 1.75 0.328125 C 2.664062 0.992188 3.84375 0.804688 5.28125 -0.234375 C 6.6875 -1.210938 8.109375 -2.488281 9.546875 -4.0625 C 10.984375 -5.632812 12.554688 -7.628906 14.265625 -10.046875 C 14.421875 -10.234375 14.617188 -10.347656 14.859375 -10.390625 C 15.109375 -10.441406 15.328125 -10.390625 15.515625 -10.234375 Z M 5.96875 -16.34375 C 5.632812 -16.125 5.175781 -15.671875 4.59375 -14.984375 C 4.007812 -14.296875 3.410156 -13.296875 2.796875 -11.984375 C 3.898438 -13.046875 4.679688 -13.953125 5.140625 -14.703125 C 5.597656 -15.453125 5.875 -16 5.96875 -16.34375 Z M 5.96875 -16.34375 "/></g></g></g><g fill="#ad795b" fill-opacity="1"><g transform="translate(133.628933, 45.069107)"><g><path d="M 13.484375 -43 C 13.890625 -42.414062 13.898438 -41.234375 13.515625 -39.453125 C 13.128906 -37.679688 12.335938 -35.488281 11.140625 -32.875 C 9.953125 -30.257812 8.363281 -27.363281 6.375 -24.1875 C 6.34375 -24.15625 6.3125 -24.125 6.28125 -24.09375 C 5.488281 -20.851562 4.703125 -17.546875 3.921875 -14.171875 C 3.140625 -10.804688 2.394531 -7.503906 1.6875 -4.265625 C 0.988281 -1.023438 0.351562 2.019531 -0.21875 4.875 C -0.800781 7.738281 -1.300781 10.285156 -1.71875 12.515625 C -2.132812 14.753906 -2.429688 16.546875 -2.609375 17.890625 C -2.578125 17.890625 -2.550781 17.890625 -2.53125 17.890625 C -2.28125 17.984375 -2.097656 18.132812 -1.984375 18.34375 C -1.878906 18.5625 -1.875 18.796875 -1.96875 19.046875 C -2.1875 19.628906 -2.410156 20.15625 -2.640625 20.625 C -2.867188 21.101562 -3.179688 21.34375 -3.578125 21.34375 C -3.671875 21.34375 -3.78125 21.328125 -3.90625 21.296875 C -4.175781 21.203125 -4.375 21.007812 -4.5 20.71875 C -4.625 20.425781 -4.640625 19.84375 -4.546875 18.96875 C -4.453125 18.101562 -4.253906 16.765625 -3.953125 14.953125 C -3.398438 11.648438 -2.570312 7.335938 -1.46875 2.015625 C -0.675781 -1.710938 0.15625 -5.507812 1.03125 -9.375 C 1.90625 -13.25 2.769531 -16.984375 3.625 -20.578125 C 4.476562 -24.171875 5.304688 -27.4375 6.109375 -30.375 C 6.253906 -30.957031 6.476562 -31.769531 6.78125 -32.8125 C 7.09375 -33.851562 7.445312 -34.96875 7.84375 -36.15625 C 8.238281 -37.351562 8.679688 -38.5 9.171875 -39.59375 C 9.660156 -40.695312 10.164062 -41.609375 10.6875 -42.328125 C 11.207031 -43.046875 11.726562 -43.453125 12.25 -43.546875 C 12.769531 -43.640625 13.179688 -43.457031 13.484375 -43 Z M 7.890625 -30.234375 C 9.359375 -32.992188 10.390625 -35.289062 10.984375 -37.125 C 11.585938 -38.957031 11.929688 -40.289062 12.015625 -41.125 C 11.585938 -40.507812 11.003906 -39.351562 10.265625 -37.65625 C 9.535156 -35.957031 8.742188 -33.484375 7.890625 -30.234375 Z M 7.890625 -30.234375 "/></g></g></g><g fill="#ad795b" fill-opacity="1"><g transform="translate(140.604699, 45.069107)"><g><path d="M 13.484375 -43 C 13.890625 -42.414062 13.898438 -41.234375 13.515625 -39.453125 C 13.128906 -37.679688 12.335938 -35.488281 11.140625 -32.875 C 9.953125 -30.257812 8.363281 -27.363281 6.375 -24.1875 C 6.34375 -24.15625 6.3125 -24.125 6.28125 -24.09375 C 5.488281 -20.851562 4.703125 -17.546875 3.921875 -14.171875 C 3.140625 -10.804688 2.394531 -7.503906 1.6875 -4.265625 C 0.988281 -1.023438 0.351562 2.019531 -0.21875 4.875 C -0.800781 7.738281 -1.300781 10.285156 -1.71875 12.515625 C -2.132812 14.753906 -2.429688 16.546875 -2.609375 17.890625 C -2.578125 17.890625 -2.550781 17.890625 -2.53125 17.890625 C -2.28125 17.984375 -2.097656 18.132812 -1.984375 18.34375 C -1.878906 18.5625 -1.875 18.796875 -1.96875 19.046875 C -2.1875 19.628906 -2.410156 20.15625 -2.640625 20.625 C -2.867188 21.101562 -3.179688 21.34375 -3.578125 21.34375 C -3.671875 21.34375 -3.78125 21.328125 -3.90625 21.296875 C -4.175781 21.203125 -4.375 21.007812 -4.5 20.71875 C -4.625 20.425781 -4.640625 19.84375 -4.546875 18.96875 C -4.453125 18.101562 -4.253906 16.765625 -3.953125 14.953125 C -3.398438 11.648438 -2.570312 7.335938 -1.46875 2.015625 C -0.675781 -1.710938 0.15625 -5.507812 1.03125 -9.375 C 1.90625 -13.25 2.769531 -16.984375 3.625 -20.578125 C 4.476562 -24.171875 5.304688 -27.4375 6.109375 -30.375 C 6.253906 -30.957031 6.476562 -31.769531 6.78125 -32.8125 C 7.09375 -33.851562 7.445312 -34.96875 7.84375 -36.15625 C 8.238281 -37.351562 8.679688 -38.5 9.171875 -39.59375 C 9.660156 -40.695312 10.164062 -41.609375 10.6875 -42.328125 C 11.207031 -43.046875 11.726562 -43.453125 12.25 -43.546875 C 12.769531 -43.640625 13.179688 -43.457031 13.484375 -43 Z M 7.890625 -30.234375 C 9.359375 -32.992188 10.390625 -35.289062 10.984375 -37.125 C 11.585938 -38.957031 11.929688 -40.289062 12.015625 -41.125 C 11.585938 -40.507812 11.003906 -39.351562 10.265625 -37.65625 C 9.535156 -35.957031 8.742188 -33.484375 7.890625 -30.234375 Z M 7.890625 -30.234375 "/></g></g></g><g fill="#ad795b" fill-opacity="1"><g transform="translate(147.580465, 45.069107)"><g><path d="M 15.515625 -10.234375 C 15.722656 -10.109375 15.84375 -9.921875 15.875 -9.671875 C 15.90625 -9.429688 15.859375 -9.222656 15.734375 -9.046875 C 13.929688 -6.535156 12.28125 -4.457031 10.78125 -2.8125 C 9.28125 -1.175781 7.78125 0.171875 6.28125 1.234375 C 5.15625 2.035156 4.039062 2.4375 2.9375 2.4375 C 2.082031 2.4375 1.332031 2.207031 0.6875 1.75 C 0.257812 1.4375 -0.15625 0.890625 -0.5625 0.109375 C -0.976562 -0.671875 -1.203125 -1.800781 -1.234375 -3.28125 C -1.265625 -4.757812 -0.898438 -6.707031 -0.140625 -9.125 C -0.140625 -9.125 -0.140625 -9.140625 -0.140625 -9.171875 C 0.773438 -12.109375 1.851562 -14.347656 3.09375 -15.890625 C 4.332031 -17.441406 5.394531 -18.234375 6.28125 -18.265625 C 6.988281 -18.296875 7.445312 -17.988281 7.65625 -17.34375 C 8 -16.457031 7.601562 -15.195312 6.46875 -13.5625 C 5.332031 -11.925781 3.664062 -10.191406 1.46875 -8.359375 C 0.789062 -6.210938 0.46875 -4.535156 0.5 -3.328125 C 0.53125 -2.117188 0.695312 -1.242188 1 -0.703125 C 1.3125 -0.171875 1.5625 0.171875 1.75 0.328125 C 2.664062 0.992188 3.84375 0.804688 5.28125 -0.234375 C 6.6875 -1.210938 8.109375 -2.488281 9.546875 -4.0625 C 10.984375 -5.632812 12.554688 -7.628906 14.265625 -10.046875 C 14.421875 -10.234375 14.617188 -10.347656 14.859375 -10.390625 C 15.109375 -10.441406 15.328125 -10.390625 15.515625 -10.234375 Z M 5.96875 -16.34375 C 5.632812 -16.125 5.175781 -15.671875 4.59375 -14.984375 C 4.007812 -14.296875 3.410156 -13.296875 2.796875 -11.984375 C 3.898438 -13.046875 4.679688 -13.953125 5.140625 -14.703125 C 5.597656 -15.453125 5.875 -16 5.96875 -16.34375 Z M 5.96875 -16.34375 "/></g></g></g><g fill="#ad795b" fill-opacity="1"><g transform="translate(160.935365, 45.069107)"><g><path d="M 6.15625 -25.109375 C 6.726562 -24.671875 7.015625 -24.070312 7.015625 -23.3125 C 7.015625 -22.457031 6.660156 -21.570312 5.953125 -20.65625 C 5.253906 -19.738281 4.507812 -18.972656 3.71875 -18.359375 C 3.5625 -18.234375 3.378906 -18.171875 3.171875 -18.171875 C 2.890625 -18.171875 2.660156 -18.296875 2.484375 -18.546875 C 2.328125 -18.722656 2.265625 -18.929688 2.296875 -19.171875 C 2.328125 -19.421875 2.445312 -19.625 2.65625 -19.78125 C 3.363281 -20.332031 3.976562 -20.953125 4.5 -21.640625 C 5.019531 -22.328125 5.28125 -22.882812 5.28125 -23.3125 C 5.28125 -23.46875 5.21875 -23.585938 5.09375 -23.671875 C 4.875 -23.828125 4.75 -24.023438 4.71875 -24.265625 C 4.695312 -24.515625 4.757812 -24.734375 4.90625 -24.921875 C 5.03125 -25.128906 5.210938 -25.25 5.453125 -25.28125 C 5.703125 -25.3125 5.9375 -25.253906 6.15625 -25.109375 Z M 6.15625 -25.109375 "/></g></g></g><g fill="#ad795b" fill-opacity="1"><g transform="translate(170.251676, 45.069107)"><g><path d="M 20.421875 -10.515625 C 20.609375 -10.359375 20.710938 -10.15625 20.734375 -9.90625 C 20.765625 -9.664062 20.691406 -9.453125 20.515625 -9.265625 C 19.628906 -8.222656 18.648438 -7.078125 17.578125 -5.828125 C 16.503906 -4.578125 15.453125 -3.351562 14.421875 -2.15625 C 13.398438 -0.957031 12.519531 0.0703125 11.78125 0.9375 C 11.050781 1.8125 10.566406 2.398438 10.328125 2.703125 C 9.804688 3.378906 9.300781 4.039062 8.8125 4.6875 C 9.207031 6.457031 9.242188 8.128906 8.921875 9.703125 C 8.597656 11.273438 8.0625 12.671875 7.3125 13.890625 C 6.5625 15.117188 5.773438 16.070312 4.953125 16.75 C 4.097656 17.476562 3.300781 17.84375 2.5625 17.84375 C 2.101562 17.84375 1.722656 17.691406 1.421875 17.390625 C 0.898438 16.898438 0.722656 16.171875 0.890625 15.203125 C 1.054688 14.242188 1.445312 13.148438 2.0625 11.921875 C 2.675781 10.703125 3.410156 9.4375 4.265625 8.125 C 5.117188 6.8125 5.992188 5.539062 6.890625 4.3125 C 6.734375 3.757812 6.515625 3.203125 6.234375 2.640625 C 5.960938 2.078125 5.644531 1.503906 5.28125 0.921875 C 4.019531 -0.972656 2.953125 -2.753906 2.078125 -4.421875 C 1.210938 -6.085938 0.8125 -7.613281 0.875 -9 C 1.019531 -11.53125 2.148438 -13.425781 4.265625 -14.6875 C 5.117188 -15.207031 6.019531 -15.507812 6.96875 -15.59375 C 7.914062 -15.6875 8.789062 -15.550781 9.59375 -15.1875 C 9.800781 -15.0625 9.941406 -14.882812 10.015625 -14.65625 C 10.097656 -14.425781 10.09375 -14.207031 10 -14 C 9.882812 -13.78125 9.707031 -13.632812 9.46875 -13.5625 C 9.238281 -13.488281 9.019531 -13.492188 8.8125 -13.578125 C 7.707031 -14.097656 6.5 -13.960938 5.1875 -13.171875 C 3.59375 -12.222656 2.75 -10.800781 2.65625 -8.90625 C 2.59375 -7.769531 2.972656 -6.4375 3.796875 -4.90625 C 4.628906 -3.375 5.613281 -1.769531 6.75 -0.09375 C 7.332031 0.789062 7.804688 1.691406 8.171875 2.609375 C 8.410156 2.304688 8.671875 1.972656 8.953125 1.609375 C 9.191406 1.296875 9.6875 0.695312 10.4375 -0.1875 C 11.1875 -1.070312 12.066406 -2.109375 13.078125 -3.296875 C 14.085938 -4.492188 15.132812 -5.71875 16.21875 -6.96875 C 17.300781 -8.226562 18.289062 -9.378906 19.1875 -10.421875 C 19.332031 -10.597656 19.523438 -10.703125 19.765625 -10.734375 C 20.015625 -10.765625 20.234375 -10.691406 20.421875 -10.515625 Z M 5.5 13.484375 C 5.71875 13.148438 5.976562 12.671875 6.28125 12.046875 C 6.59375 11.421875 6.863281 10.65625 7.09375 9.75 C 7.320312 8.84375 7.390625 7.84375 7.296875 6.75 C 5.890625 8.738281 4.84375 10.390625 4.15625 11.703125 C 3.46875 13.015625 3.023438 14.015625 2.828125 14.703125 C 2.628906 15.390625 2.554688 15.84375 2.609375 16.0625 C 2.828125 16.0625 3.210938 15.863281 3.765625 15.46875 C 4.316406 15.070312 4.894531 14.410156 5.5 13.484375 Z M 5.5 13.484375 "/></g></g></g><g fill="#ad795b" fill-opacity="1"><g transform="translate(188.748674, 45.069107)"><g/></g></g><g fill="#ad795b" fill-opacity="1"><g transform="translate(2.146978, 108.487069)"><g><path d="M 54.015625 -32.53125 C 54.191406 -31.40625 54.171875 -29.921875 53.953125 -28.078125 C 53.742188 -26.242188 53.363281 -24.171875 52.8125 -21.859375 C 52.269531 -19.554688 51.5625 -17.125 50.6875 -14.5625 C 49.8125 -12.007812 48.804688 -9.445312 47.671875 -6.875 C 46.546875 -4.3125 45.304688 -1.835938 43.953125 0.546875 C 42.609375 2.929688 41.179688 5.101562 39.671875 7.0625 C 38.160156 9.019531 36.578125 10.660156 34.921875 11.984375 C 32.773438 13.691406 30.96875 14.179688 29.5 13.453125 C 28.375 12.898438 27.554688 11.742188 27.046875 9.984375 C 26.546875 8.222656 26.238281 6.019531 26.125 3.375 C 26.019531 0.726562 26 -2.21875 26.0625 -5.46875 C 26.0625 -6.59375 26.0625 -7.78125 26.0625 -9.03125 C 26.0625 -10.289062 26.035156 -11.425781 25.984375 -12.4375 C 25.941406 -13.445312 25.832031 -14.148438 25.65625 -14.546875 C 25.53125 -14.421875 25.320312 -14.164062 25.03125 -13.78125 C 24.738281 -13.40625 24.332031 -12.773438 23.8125 -11.890625 C 17.175781 -0.078125 12.007812 8.519531 8.3125 13.90625 C 7.019531 15.707031 5.945312 17.117188 5.09375 18.140625 C 4.238281 19.171875 3.519531 19.890625 2.9375 20.296875 C 2.351562 20.710938 1.863281 20.921875 1.46875 20.921875 C 1.25 20.921875 1.035156 20.875 0.828125 20.78125 C 0.546875 20.664062 0.3125 20.453125 0.125 20.140625 C -0.0507812 19.835938 -0.15625 19.34375 -0.1875 18.65625 C -0.21875 17.96875 -0.132812 16.988281 0.0625 15.71875 C 0.257812 14.445312 0.632812 12.789062 1.1875 10.75 C 1.738281 8.71875 2.488281 6.191406 3.4375 3.171875 C 4.238281 0.722656 5.101562 -1.84375 6.03125 -4.53125 C 6.96875 -7.226562 7.929688 -9.9375 8.921875 -12.65625 C 9.921875 -15.382812 10.894531 -18.019531 11.84375 -20.5625 C 12.789062 -23.101562 13.675781 -25.457031 14.5 -27.625 C 15.757812 -30.863281 16.835938 -33.5 17.734375 -35.53125 C 18.640625 -37.570312 19.410156 -39.140625 20.046875 -40.234375 C 20.691406 -41.335938 21.21875 -42.113281 21.625 -42.5625 C 22.039062 -43.007812 22.378906 -43.253906 22.640625 -43.296875 C 22.898438 -43.335938 23.125 -43.347656 23.3125 -43.328125 C 23.925781 -43.171875 24.300781 -42.675781 24.4375 -41.84375 C 24.570312 -41.019531 24.59375 -39.953125 24.5 -38.640625 C 24.5 -38.390625 24.40625 -38.1875 24.21875 -38.03125 C 24.039062 -37.882812 23.832031 -37.8125 23.59375 -37.8125 C 23.34375 -37.84375 23.140625 -37.945312 22.984375 -38.125 C 22.835938 -38.3125 22.765625 -38.53125 22.765625 -38.78125 C 22.796875 -39.414062 22.8125 -39.925781 22.8125 -40.3125 C 22.8125 -40.695312 22.796875 -40.992188 22.765625 -41.203125 C 22.453125 -40.835938 22.003906 -40.117188 21.421875 -39.046875 C 20.847656 -37.984375 20.125 -36.472656 19.25 -34.515625 C 18.375 -32.554688 17.34375 -30.046875 16.15625 -26.984375 C 13.707031 -20.617188 11.640625 -15.078125 9.953125 -10.359375 C 8.273438 -5.648438 6.890625 -1.636719 5.796875 1.671875 C 4.710938 4.992188 3.875 7.738281 3.28125 9.90625 C 2.6875 12.082031 2.257812 13.804688 2 15.078125 C 1.738281 16.347656 1.59375 17.28125 1.5625 17.875 C 1.53125 18.46875 1.546875 18.875 1.609375 19.09375 C 1.785156 19 2.085938 18.753906 2.515625 18.359375 C 2.953125 17.960938 3.566406 17.265625 4.359375 16.265625 C 5.148438 15.273438 6.191406 13.832031 7.484375 11.9375 C 11.117188 6.550781 16.054688 -1.675781 22.296875 -12.75 C 23.128906 -14.21875 23.832031 -15.226562 24.40625 -15.78125 C 24.988281 -16.332031 25.570312 -16.535156 26.15625 -16.390625 C 27.007812 -16.140625 27.515625 -15.15625 27.671875 -13.4375 C 27.828125 -11.726562 27.875 -9.054688 27.8125 -5.421875 C 27.8125 -3.828125 27.8125 -2.101562 27.8125 -0.25 C 27.8125 1.601562 27.878906 3.390625 28.015625 5.109375 C 28.148438 6.835938 28.394531 8.3125 28.75 9.53125 C 29.101562 10.757812 29.613281 11.53125 30.28125 11.84375 C 30.769531 12.082031 31.351562 12.039062 32.03125 11.71875 C 32.707031 11.40625 33.304688 11.03125 33.828125 10.59375 C 35.628906 9.15625 37.363281 7.28125 39.03125 4.96875 C 40.695312 2.664062 42.25 0.113281 43.6875 -2.6875 C 45.125 -5.488281 46.414062 -8.351562 47.5625 -11.28125 C 48.707031 -14.21875 49.671875 -17.054688 50.453125 -19.796875 C 51.234375 -22.535156 51.785156 -24.988281 52.109375 -27.15625 C 52.429688 -29.332031 52.484375 -31.035156 52.265625 -32.265625 C 52.140625 -33.054688 51.925781 -33.5 51.625 -33.59375 C 51.5625 -33.625 51.363281 -33.597656 51.03125 -33.515625 C 50.695312 -33.441406 50.160156 -33.070312 49.421875 -32.40625 C 49.242188 -32.25 49.03125 -32.175781 48.78125 -32.1875 C 48.539062 -32.207031 48.34375 -32.304688 48.1875 -32.484375 C 48 -32.671875 47.910156 -32.882812 47.921875 -33.125 C 47.941406 -33.375 48.046875 -33.578125 48.234375 -33.734375 C 49.828125 -35.140625 51.15625 -35.660156 52.21875 -35.296875 C 53.164062 -34.953125 53.765625 -34.03125 54.015625 -32.53125 Z M 54.015625 -32.53125 "/></g></g></g><g fill="#ad795b" fill-opacity="1"><g transform="translate(55.337143, 108.487069)"><g><path d="M 15.515625 -10.234375 C 15.722656 -10.109375 15.84375 -9.921875 15.875 -9.671875 C 15.90625 -9.429688 15.859375 -9.222656 15.734375 -9.046875 C 13.929688 -6.535156 12.28125 -4.457031 10.78125 -2.8125 C 9.28125 -1.175781 7.78125 0.171875 6.28125 1.234375 C 5.15625 2.035156 4.039062 2.4375 2.9375 2.4375 C 2.082031 2.4375 1.332031 2.207031 0.6875 1.75 C 0.257812 1.4375 -0.15625 0.890625 -0.5625 0.109375 C -0.976562 -0.671875 -1.203125 -1.800781 -1.234375 -3.28125 C -1.265625 -4.757812 -0.898438 -6.707031 -0.140625 -9.125 C -0.140625 -9.125 -0.140625 -9.140625 -0.140625 -9.171875 C 0.773438 -12.109375 1.851562 -14.347656 3.09375 -15.890625 C 4.332031 -17.441406 5.394531 -18.234375 6.28125 -18.265625 C 6.988281 -18.296875 7.445312 -17.988281 7.65625 -17.34375 C 8 -16.457031 7.601562 -15.195312 6.46875 -13.5625 C 5.332031 -11.925781 3.664062 -10.191406 1.46875 -8.359375 C 0.789062 -6.210938 0.46875 -4.535156 0.5 -3.328125 C 0.53125 -2.117188 0.695312 -1.242188 1 -0.703125 C 1.3125 -0.171875 1.5625 0.171875 1.75 0.328125 C 2.664062 0.992188 3.84375 0.804688 5.28125 -0.234375 C 6.6875 -1.210938 8.109375 -2.488281 9.546875 -4.0625 C 10.984375 -5.632812 12.554688 -7.628906 14.265625 -10.046875 C 14.421875 -10.234375 14.617188 -10.347656 14.859375 -10.390625 C 15.109375 -10.441406 15.328125 -10.390625 15.515625 -10.234375 Z M 5.96875 -16.34375 C 5.632812 -16.125 5.175781 -15.671875 4.59375 -14.984375 C 4.007812 -14.296875 3.410156 -13.296875 2.796875 -11.984375 C 3.898438 -13.046875 4.679688 -13.953125 5.140625 -14.703125 C 5.597656 -15.453125 5.875 -16 5.96875 -16.34375 Z M 5.96875 -16.34375 "/></g></g></g><g fill="#ad795b" fill-opacity="1"><g transform="translate(68.692044, 108.487069)"><g><path d="M 19.359375 -10.28125 C 19.578125 -10.15625 19.71875 -9.96875 19.78125 -9.71875 C 19.84375 -9.476562 19.796875 -9.269531 19.640625 -9.09375 C 18.359375 -6.976562 16.890625 -5.128906 15.234375 -3.546875 C 13.578125 -1.972656 11.882812 -0.621094 10.15625 0.5 C 8.4375 1.632812 6.78125 2.578125 5.1875 3.328125 C 3.59375 4.078125 2.203125 4.648438 1.015625 5.046875 C 0.578125 5.203125 0.238281 5.082031 0 4.6875 C -0.488281 5.90625 -0.914062 7.113281 -1.28125 8.3125 C -1.40625 8.707031 -1.695312 8.90625 -2.15625 8.90625 C -2.1875 8.90625 -2.234375 8.90625 -2.296875 8.90625 C -2.785156 8.8125 -3.03125 8.519531 -3.03125 8.03125 C -3.03125 7.757812 -2.921875 7.085938 -2.703125 6.015625 C -2.492188 4.941406 -2.210938 3.570312 -1.859375 1.90625 C -1.503906 0.238281 -1.097656 -1.609375 -0.640625 -3.640625 C -0.179688 -5.679688 0.289062 -7.785156 0.78125 -9.953125 C 1.269531 -12.128906 1.75 -14.265625 2.21875 -16.359375 C 2.695312 -18.453125 3.148438 -20.390625 3.578125 -22.171875 C 3.578125 -22.253906 3.59375 -22.34375 3.625 -22.4375 C 4.144531 -24.644531 4.570312 -26.421875 4.90625 -27.765625 C 5.613281 -30.578125 6.394531 -33.140625 7.25 -35.453125 C 8.101562 -37.765625 8.953125 -39.625 9.796875 -41.03125 C 10.640625 -42.4375 11.378906 -43.203125 12.015625 -43.328125 C 12.535156 -43.410156 12.9375 -43.253906 13.21875 -42.859375 C 13.644531 -42.242188 13.601562 -40.972656 13.09375 -39.046875 C 12.59375 -37.117188 11.675781 -34.679688 10.34375 -31.734375 C 9.019531 -28.785156 7.347656 -25.472656 5.328125 -21.796875 C 4.835938 -19.742188 4.316406 -17.523438 3.765625 -15.140625 C 3.210938 -12.753906 2.664062 -10.351562 2.125 -7.9375 C 1.59375 -5.519531 1.097656 -3.269531 0.640625 -1.1875 C 1.492188 -2.96875 2.320312 -4.40625 3.125 -5.5 C 5.507812 -8.84375 7.40625 -10.296875 8.8125 -9.859375 C 9.082031 -9.773438 9.378906 -9.570312 9.703125 -9.25 C 10.023438 -8.925781 10.203125 -8.320312 10.234375 -7.4375 C 10.265625 -6.519531 10.035156 -5.351562 9.546875 -3.9375 C 9.054688 -2.53125 8.304688 -1.140625 7.296875 0.234375 C 9.585938 -1.117188 11.664062 -2.664062 13.53125 -4.40625 C 15.40625 -6.144531 16.953125 -8.007812 18.171875 -10 C 18.296875 -10.21875 18.472656 -10.347656 18.703125 -10.390625 C 18.929688 -10.441406 19.148438 -10.40625 19.359375 -10.28125 Z M 11.703125 -40.796875 C 11.179688 -40.003906 10.484375 -38.632812 9.609375 -36.6875 C 8.742188 -34.75 7.878906 -32.125 7.015625 -28.8125 C 8.546875 -31.90625 9.671875 -34.4375 10.390625 -36.40625 C 11.109375 -38.382812 11.546875 -39.847656 11.703125 -40.796875 Z M 0.5 3.34375 C 2.0625 2.769531 3.394531 1.914062 4.5 0.78125 C 5.601562 -0.351562 6.46875 -1.546875 7.09375 -2.796875 C 7.71875 -4.054688 8.125 -5.160156 8.3125 -6.109375 C 8.457031 -6.773438 8.5 -7.269531 8.4375 -7.59375 C 8.382812 -7.914062 8.34375 -8.109375 8.3125 -8.171875 C 8.25 -8.171875 8.078125 -8.097656 7.796875 -7.953125 C 7.523438 -7.816406 7.128906 -7.492188 6.609375 -6.984375 C 6.085938 -6.484375 5.414062 -5.65625 4.59375 -4.5 C 3.945312 -3.582031 3.265625 -2.441406 2.546875 -1.078125 C 1.828125 0.285156 1.144531 1.757812 0.5 3.34375 Z M 0.5 3.34375 "/></g></g></g><g fill="#ad795b" fill-opacity="1"><g transform="translate(85.947875, 108.487069)"><g/></g></g><g fill="#ad795b" fill-opacity="1"><g transform="translate(100.037066, 108.487069)"><g><path d="M 35.515625 -44.140625 C 36.285156 -43.679688 37.046875 -43.046875 37.796875 -42.234375 C 38.546875 -41.429688 39.191406 -40.394531 39.734375 -39.125 C 40.285156 -37.851562 40.644531 -36.304688 40.8125 -34.484375 C 40.988281 -32.660156 40.90625 -30.515625 40.5625 -28.046875 C 39.707031 -22.222656 38.09375 -16.539062 35.71875 -11 C 33.351562 -5.46875 30.363281 -0.410156 26.75 4.171875 C 24.695312 6.742188 22.597656 8.984375 20.453125 10.890625 C 18.316406 12.804688 16.253906 14.285156 14.265625 15.328125 C 12.285156 16.367188 10.515625 16.890625 8.953125 16.890625 C 8.921875 16.890625 8.890625 16.890625 8.859375 16.890625 C 8.460938 16.890625 8.078125 16.84375 7.703125 16.75 C 7.492188 17.96875 7.316406 19.082031 7.171875 20.09375 C 7.035156 21.101562 6.941406 21.976562 6.890625 22.71875 C 6.941406 22.5625 7 22.40625 7.0625 22.25 C 7.15625 22.007812 7.316406 21.84375 7.546875 21.75 C 7.773438 21.65625 8 21.65625 8.21875 21.75 C 8.457031 21.84375 8.625 22.003906 8.71875 22.234375 C 8.8125 22.460938 8.8125 22.6875 8.71875 22.90625 C 8.226562 24.09375 7.800781 24.976562 7.4375 25.5625 C 7.070312 26.144531 6.671875 26.4375 6.234375 26.4375 C 6.148438 26.4375 6.046875 26.40625 5.921875 26.34375 C 5.703125 26.28125 5.515625 26.132812 5.359375 25.90625 C 5.210938 25.675781 5.125 25.234375 5.09375 24.578125 C 5.0625 23.921875 5.113281 22.910156 5.25 21.546875 C 5.394531 20.179688 5.664062 18.351562 6.0625 16.0625 C 4.800781 15.207031 4.066406 13.800781 3.859375 11.84375 C 3.828125 11.59375 3.882812 11.367188 4.03125 11.171875 C 4.1875 10.972656 4.390625 10.859375 4.640625 10.828125 C 4.878906 10.796875 5.085938 10.859375 5.265625 11.015625 C 5.453125 11.171875 5.5625 11.367188 5.59375 11.609375 C 5.71875 12.617188 5.976562 13.398438 6.375 13.953125 C 6.800781 11.503906 7.34375 8.535156 8 5.046875 C 8.664062 1.554688 9.472656 -2.5625 10.421875 -7.3125 C 11.367188 -12.070312 12.484375 -17.585938 13.765625 -23.859375 C 14.378906 -26.953125 14.960938 -29.875 15.515625 -32.625 C 16.066406 -35.382812 16.570312 -37.863281 17.03125 -40.0625 C 16.539062 -39.757812 16.082031 -39.453125 15.65625 -39.140625 C 13.90625 -37.890625 12.242188 -36.398438 10.671875 -34.671875 C 9.097656 -32.941406 7.742188 -31 6.609375 -28.84375 C 5.472656 -26.6875 4.695312 -24.367188 4.28125 -21.890625 C 3.875 -19.410156 3.976562 -16.8125 4.59375 -14.09375 C 4.625 -13.84375 4.578125 -13.617188 4.453125 -13.421875 C 4.328125 -13.222656 4.144531 -13.09375 3.90625 -13.03125 C 3.65625 -13 3.429688 -13.046875 3.234375 -13.171875 C 3.035156 -13.296875 2.90625 -13.476562 2.84375 -13.71875 C 2.195312 -16.65625 2.085938 -19.453125 2.515625 -22.109375 C 2.953125 -24.773438 3.773438 -27.253906 4.984375 -29.546875 C 6.191406 -31.847656 7.632812 -33.929688 9.3125 -35.796875 C 11 -37.660156 12.757812 -39.25 14.59375 -40.5625 C 15.539062 -41.238281 16.488281 -41.851562 17.4375 -42.40625 C 17.6875 -43.6875 17.898438 -44.785156 18.078125 -45.703125 C 18.109375 -45.953125 18.222656 -46.144531 18.421875 -46.28125 C 18.617188 -46.414062 18.84375 -46.453125 19.09375 -46.390625 C 19.332031 -46.359375 19.519531 -46.242188 19.65625 -46.046875 C 19.800781 -45.847656 19.859375 -45.628906 19.828125 -45.390625 C 19.703125 -44.835938 19.578125 -44.175781 19.453125 -43.40625 C 22.453125 -44.84375 25.375 -45.640625 28.21875 -45.796875 C 31.0625 -45.953125 33.492188 -45.398438 35.515625 -44.140625 Z M 38.828125 -28.265625 C 39.316406 -31.847656 39.207031 -34.851562 38.5 -37.28125 C 37.800781 -39.71875 36.5 -41.515625 34.59375 -42.671875 C 32.695312 -43.804688 30.359375 -44.242188 27.578125 -43.984375 C 24.796875 -43.722656 21.953125 -42.8125 19.046875 -41.25 C 18.585938 -38.925781 18.050781 -36.25 17.4375 -33.21875 C 16.820312 -30.195312 16.164062 -26.957031 15.46875 -23.5 C 14.851562 -20.5 14.203125 -17.289062 13.515625 -13.875 C 12.828125 -10.46875 12.144531 -7.035156 11.46875 -3.578125 C 10.800781 -0.117188 10.160156 3.195312 9.546875 6.375 C 8.929688 9.5625 8.410156 12.4375 7.984375 15 C 8.253906 15.0625 8.546875 15.109375 8.859375 15.140625 C 8.890625 15.140625 8.921875 15.140625 8.953125 15.140625 C 10.078125 15.140625 11.503906 14.710938 13.234375 13.859375 C 14.960938 13.003906 16.867188 11.6875 18.953125 9.90625 C 21.035156 8.132812 23.160156 5.859375 25.328125 3.078125 C 26.367188 1.785156 27.539062 0.136719 28.84375 -1.859375 C 30.144531 -3.859375 31.453125 -6.179688 32.765625 -8.828125 C 34.078125 -11.472656 35.273438 -14.425781 36.359375 -17.6875 C 37.453125 -20.945312 38.273438 -24.472656 38.828125 -28.265625 Z M 38.828125 -28.265625 "/></g></g></g><g fill="#ad795b" fill-opacity="1"><g transform="translate(139.092131, 108.487069)"><g><path d="M 15.515625 -10.234375 C 15.722656 -10.109375 15.84375 -9.921875 15.875 -9.671875 C 15.90625 -9.429688 15.859375 -9.222656 15.734375 -9.046875 C 13.929688 -6.535156 12.28125 -4.457031 10.78125 -2.8125 C 9.28125 -1.175781 7.78125 0.171875 6.28125 1.234375 C 5.15625 2.035156 4.039062 2.4375 2.9375 2.4375 C 2.082031 2.4375 1.332031 2.207031 0.6875 1.75 C 0.257812 1.4375 -0.15625 0.890625 -0.5625 0.109375 C -0.976562 -0.671875 -1.203125 -1.800781 -1.234375 -3.28125 C -1.265625 -4.757812 -0.898438 -6.707031 -0.140625 -9.125 C -0.140625 -9.125 -0.140625 -9.140625 -0.140625 -9.171875 C 0.773438 -12.109375 1.851562 -14.347656 3.09375 -15.890625 C 4.332031 -17.441406 5.394531 -18.234375 6.28125 -18.265625 C 6.988281 -18.296875 7.445312 -17.988281 7.65625 -17.34375 C 8 -16.457031 7.601562 -15.195312 6.46875 -13.5625 C 5.332031 -11.925781 3.664062 -10.191406 1.46875 -8.359375 C 0.789062 -6.210938 0.46875 -4.535156 0.5 -3.328125 C 0.53125 -2.117188 0.695312 -1.242188 1 -0.703125 C 1.3125 -0.171875 1.5625 0.171875 1.75 0.328125 C 2.664062 0.992188 3.84375 0.804688 5.28125 -0.234375 C 6.6875 -1.210938 8.109375 -2.488281 9.546875 -4.0625 C 10.984375 -5.632812 12.554688 -7.628906 14.265625 -10.046875 C 14.421875 -10.234375 14.617188 -10.347656 14.859375 -10.390625 C 15.109375 -10.441406 15.328125 -10.390625 15.515625 -10.234375 Z M 5.96875 -16.34375 C 5.632812 -16.125 5.175781 -15.671875 4.59375 -14.984375 C 4.007812 -14.296875 3.410156 -13.296875 2.796875 -11.984375 C 3.898438 -13.046875 4.679688 -13.953125 5.140625 -14.703125 C 5.597656 -15.453125 5.875 -16 5.96875 -16.34375 Z M 5.96875 -16.34375 "/></g></g></g><g fill="#ad795b" fill-opacity="1"><g transform="translate(152.447031, 108.487069)"><g><path d="M 20.421875 -10.515625 C 20.609375 -10.359375 20.710938 -10.15625 20.734375 -9.90625 C 20.765625 -9.664062 20.691406 -9.453125 20.515625 -9.265625 C 19.628906 -8.222656 18.648438 -7.078125 17.578125 -5.828125 C 16.503906 -4.578125 15.453125 -3.351562 14.421875 -2.15625 C 13.398438 -0.957031 12.519531 0.0703125 11.78125 0.9375 C 11.050781 1.8125 10.566406 2.398438 10.328125 2.703125 C 9.804688 3.378906 9.300781 4.039062 8.8125 4.6875 C 9.207031 6.457031 9.242188 8.128906 8.921875 9.703125 C 8.597656 11.273438 8.0625 12.671875 7.3125 13.890625 C 6.5625 15.117188 5.773438 16.070312 4.953125 16.75 C 4.097656 17.476562 3.300781 17.84375 2.5625 17.84375 C 2.101562 17.84375 1.722656 17.691406 1.421875 17.390625 C 0.898438 16.898438 0.722656 16.171875 0.890625 15.203125 C 1.054688 14.242188 1.445312 13.148438 2.0625 11.921875 C 2.675781 10.703125 3.410156 9.4375 4.265625 8.125 C 5.117188 6.8125 5.992188 5.539062 6.890625 4.3125 C 6.734375 3.757812 6.515625 3.203125 6.234375 2.640625 C 5.960938 2.078125 5.644531 1.503906 5.28125 0.921875 C 4.019531 -0.972656 2.953125 -2.753906 2.078125 -4.421875 C 1.210938 -6.085938 0.8125 -7.613281 0.875 -9 C 1.019531 -11.53125 2.148438 -13.425781 4.265625 -14.6875 C 5.117188 -15.207031 6.019531 -15.507812 6.96875 -15.59375 C 7.914062 -15.6875 8.789062 -15.550781 9.59375 -15.1875 C 9.800781 -15.0625 9.941406 -14.882812 10.015625 -14.65625 C 10.097656 -14.425781 10.09375 -14.207031 10 -14 C 9.882812 -13.78125 9.707031 -13.632812 9.46875 -13.5625 C 9.238281 -13.488281 9.019531 -13.492188 8.8125 -13.578125 C 7.707031 -14.097656 6.5 -13.960938 5.1875 -13.171875 C 3.59375 -12.222656 2.75 -10.800781 2.65625 -8.90625 C 2.59375 -7.769531 2.972656 -6.4375 3.796875 -4.90625 C 4.628906 -3.375 5.613281 -1.769531 6.75 -0.09375 C 7.332031 0.789062 7.804688 1.691406 8.171875 2.609375 C 8.410156 2.304688 8.671875 1.972656 8.953125 1.609375 C 9.191406 1.296875 9.6875 0.695312 10.4375 -0.1875 C 11.1875 -1.070312 12.066406 -2.109375 13.078125 -3.296875 C 14.085938 -4.492188 15.132812 -5.71875 16.21875 -6.96875 C 17.300781 -8.226562 18.289062 -9.378906 19.1875 -10.421875 C 19.332031 -10.597656 19.523438 -10.703125 19.765625 -10.734375 C 20.015625 -10.765625 20.234375 -10.691406 20.421875 -10.515625 Z M 5.5 13.484375 C 5.71875 13.148438 5.976562 12.671875 6.28125 12.046875 C 6.59375 11.421875 6.863281 10.65625 7.09375 9.75 C 7.320312 8.84375 7.390625 7.84375 7.296875 6.75 C 5.890625 8.738281 4.84375 10.390625 4.15625 11.703125 C 3.46875 13.015625 3.023438 14.015625 2.828125 14.703125 C 2.628906 15.390625 2.554688 15.84375 2.609375 16.0625 C 2.828125 16.0625 3.210938 15.863281 3.765625 15.46875 C 4.316406 15.070312 4.894531 14.410156 5.5 13.484375 Z M 5.5 13.484375 "/></g></g></g><g fill="#ad795b" fill-opacity="1"><g transform="translate(170.941965, 108.487069)"><g><path d="M 13.453125 -10.46875 C 13.660156 -10.34375 13.785156 -10.15625 13.828125 -9.90625 C 13.878906 -9.664062 13.84375 -9.4375 13.71875 -9.21875 C 13.132812 -8.300781 12.398438 -7.273438 11.515625 -6.140625 C 10.628906 -5.015625 9.664062 -3.9375 8.625 -2.90625 C 7.582031 -1.882812 6.550781 -1.035156 5.53125 -0.359375 C 4.507812 0.304688 3.566406 0.640625 2.703125 0.640625 C 2.335938 0.640625 2.019531 0.578125 1.75 0.453125 C 0.707031 -0.00390625 0.128906 -1.109375 0.015625 -2.859375 C -0.0859375 -4.617188 0.269531 -7.109375 1.09375 -10.328125 C 1.15625 -10.566406 1.289062 -10.75 1.5 -10.875 C 1.71875 -11 1.9375 -11.03125 2.15625 -10.96875 C 2.40625 -10.90625 2.585938 -10.765625 2.703125 -10.546875 C 2.828125 -10.335938 2.859375 -10.125 2.796875 -9.90625 C 2.304688 -7.945312 2 -6.394531 1.875 -5.25 C 1.757812 -4.101562 1.738281 -3.238281 1.8125 -2.65625 C 1.882812 -2.082031 2 -1.691406 2.15625 -1.484375 C 2.3125 -1.285156 2.40625 -1.1875 2.4375 -1.1875 C 2.832031 -1.007812 3.410156 -1.140625 4.171875 -1.578125 C 4.941406 -2.023438 5.800781 -2.679688 6.75 -3.546875 C 7.695312 -4.421875 8.648438 -5.429688 9.609375 -6.578125 C 10.578125 -7.734375 11.441406 -8.9375 12.203125 -10.1875 C 12.359375 -10.40625 12.550781 -10.535156 12.78125 -10.578125 C 13.007812 -10.617188 13.234375 -10.582031 13.453125 -10.46875 Z M 2.609375 -14.140625 C 2.003906 -14.171875 1.691406 -14.34375 1.671875 -14.65625 C 1.660156 -14.976562 1.800781 -15.304688 2.09375 -15.640625 C 2.382812 -15.984375 2.679688 -16.21875 2.984375 -16.34375 C 3.472656 -16.488281 3.832031 -16.453125 4.0625 -16.234375 C 4.289062 -16.023438 4.394531 -15.753906 4.375 -15.421875 C 4.363281 -15.085938 4.210938 -14.78125 3.921875 -14.5 C 3.628906 -14.226562 3.191406 -14.109375 2.609375 -14.140625 Z M 2.609375 -14.140625 "/></g></g></g><g fill="#ad795b" fill-opacity="1"><g transform="translate(182.552938, 108.487069)"><g><path d="M 21.0625 -10.1875 C 21.1875 -9.96875 21.222656 -9.734375 21.171875 -9.484375 C 21.128906 -9.242188 21 -9.066406 20.78125 -8.953125 C 19.007812 -7.785156 16.988281 -6.425781 14.71875 -4.875 C 12.457031 -3.332031 10.148438 -1.554688 7.796875 0.453125 C 6.753906 6.703125 5.632812 12.066406 4.4375 16.546875 C 3.25 21.023438 2.019531 24.722656 0.75 27.640625 C -0.507812 30.566406 -1.75 32.796875 -2.96875 34.328125 C -4.195312 35.859375 -5.363281 36.773438 -6.46875 37.078125 C -6.800781 37.171875 -7.125 37.21875 -7.4375 37.21875 C -8.414062 37.21875 -9.253906 36.789062 -9.953125 35.9375 C -10.566406 35.132812 -10.992188 34.035156 -11.234375 32.640625 C -11.484375 31.253906 -11.53125 29.707031 -11.375 28 C -11.226562 26.644531 -10.878906 24.9375 -10.328125 22.875 C -9.773438 20.8125 -8.796875 18.507812 -7.390625 15.96875 C -5.523438 12.601562 -3.410156 9.554688 -1.046875 6.828125 C 1.304688 4.109375 3.707031 1.679688 6.15625 -0.453125 C 6.363281 -1.710938 6.566406 -3.03125 6.765625 -4.40625 C 6.960938 -5.78125 7.15625 -7.1875 7.34375 -8.625 C 6.914062 -7.976562 6.472656 -7.328125 6.015625 -6.671875 C 5.554688 -6.015625 5.097656 -5.378906 4.640625 -4.765625 C 4.179688 -4.191406 3.664062 -3.648438 3.09375 -3.140625 C 2.53125 -2.640625 1.941406 -2.476562 1.328125 -2.65625 C 1.054688 -2.71875 0.789062 -2.894531 0.53125 -3.1875 C 0.269531 -3.476562 0.109375 -3.976562 0.046875 -4.6875 C -0.0117188 -5.445312 0.0664062 -6.429688 0.296875 -7.640625 C 0.523438 -8.847656 0.882812 -10.09375 1.375 -11.375 C 1.863281 -12.664062 2.472656 -13.835938 3.203125 -14.890625 C 3.941406 -15.941406 4.769531 -16.695312 5.6875 -17.15625 C 6.238281 -17.4375 6.90625 -17.582031 7.6875 -17.59375 C 8.46875 -17.613281 9.316406 -17.210938 10.234375 -16.390625 C 10.421875 -16.203125 10.519531 -15.992188 10.53125 -15.765625 C 10.550781 -15.535156 10.46875 -15.328125 10.28125 -15.140625 C 10.125 -14.960938 9.921875 -14.863281 9.671875 -14.84375 C 9.429688 -14.832031 9.222656 -14.898438 9.046875 -15.046875 C 7.941406 -16.054688 6.820312 -16.054688 5.6875 -15.046875 C 4.988281 -14.410156 4.367188 -13.570312 3.828125 -12.53125 C 3.296875 -11.488281 2.859375 -10.414062 2.515625 -9.3125 C 2.179688 -8.207031 1.960938 -7.203125 1.859375 -6.296875 C 1.753906 -5.398438 1.757812 -4.785156 1.875 -4.453125 C 1.96875 -4.515625 2.128906 -4.644531 2.359375 -4.84375 C 2.585938 -5.039062 2.875 -5.367188 3.21875 -5.828125 C 3.820312 -6.617188 4.4375 -7.472656 5.0625 -8.390625 C 5.695312 -9.316406 6.273438 -10.175781 6.796875 -10.96875 C 7.316406 -11.757812 7.695312 -12.382812 7.9375 -12.84375 C 8.1875 -13.25 8.539062 -13.375 9 -13.21875 C 9.457031 -13.09375 9.65625 -12.785156 9.59375 -12.296875 C 9.375 -10.492188 9.148438 -8.75 8.921875 -7.0625 C 8.691406 -5.382812 8.457031 -3.765625 8.21875 -2.203125 C 10.351562 -3.941406 12.421875 -5.484375 14.421875 -6.828125 C 16.429688 -8.179688 18.234375 -9.378906 19.828125 -10.421875 C 20.035156 -10.566406 20.253906 -10.609375 20.484375 -10.546875 C 20.710938 -10.492188 20.90625 -10.375 21.0625 -10.1875 Z M -6.96875 35.375 C -6.238281 35.164062 -5.367188 34.445312 -4.359375 33.21875 C -3.347656 32 -2.269531 30.117188 -1.125 27.578125 C 0.0195312 25.035156 1.179688 21.695312 2.359375 17.5625 C 3.535156 13.4375 4.644531 8.378906 5.6875 2.390625 C 3.582031 4.316406 1.535156 6.476562 -0.453125 8.875 C -2.441406 11.28125 -4.234375 13.9375 -5.828125 16.84375 C -7.421875 19.71875 -8.5 22.382812 -9.0625 24.84375 C -9.625 27.3125 -9.820312 29.410156 -9.65625 31.140625 C -9.488281 32.867188 -9.128906 34.097656 -8.578125 34.828125 C -8.117188 35.378906 -7.582031 35.5625 -6.96875 35.375 Z M -6.96875 35.375 "/></g></g></g><g fill="#ad795b" fill-opacity="1"><g transform="translate(201.460919, 108.487069)"><g><path d="M 18.5 -10.234375 C 18.707031 -10.109375 18.84375 -9.929688 18.90625 -9.703125 C 18.96875 -9.472656 18.9375 -9.253906 18.8125 -9.046875 C 17.375 -6.503906 16.082031 -4.550781 14.9375 -3.1875 C 13.789062 -1.820312 12.617188 -1.21875 11.421875 -1.375 C 9.890625 -1.5625 8.679688 -3.210938 7.796875 -6.328125 C 7.492188 -7.335938 7.226562 -8.0625 7 -8.5 C 6.769531 -8.945312 6.582031 -9.222656 6.4375 -9.328125 C 6.300781 -9.441406 6.207031 -9.5 6.15625 -9.5 C 6.0625 -9.53125 5.875 -9.4375 5.59375 -9.21875 C 5.320312 -9.007812 4.925781 -8.535156 4.40625 -7.796875 C 3.882812 -7.066406 3.238281 -5.925781 2.46875 -4.375 C 1.707031 -2.832031 0.773438 -0.714844 -0.328125 1.96875 C -0.472656 2.34375 -0.726562 2.53125 -1.09375 2.53125 C -1.1875 2.53125 -1.265625 2.515625 -1.328125 2.484375 C -1.847656 2.359375 -2.078125 2.035156 -2.015625 1.515625 C -1.867188 0.265625 -1.59375 -1.1875 -1.1875 -2.84375 C -0.789062 -4.5 -0.359375 -6.179688 0.109375 -7.890625 C 0.585938 -9.609375 1.023438 -11.140625 1.421875 -12.484375 C 1.515625 -12.785156 1.597656 -13.066406 1.671875 -13.328125 C 1.753906 -13.585938 1.820312 -13.84375 1.875 -14.09375 C 1.96875 -14.332031 2.117188 -14.503906 2.328125 -14.609375 C 2.546875 -14.722656 2.765625 -14.75 2.984375 -14.6875 C 3.222656 -14.625 3.40625 -14.484375 3.53125 -14.265625 C 3.65625 -14.054688 3.671875 -13.828125 3.578125 -13.578125 C 3.515625 -13.335938 3.445312 -13.085938 3.375 -12.828125 C 3.300781 -12.566406 3.21875 -12.285156 3.125 -11.984375 C 2.90625 -11.179688 2.65625 -10.304688 2.375 -9.359375 C 2.101562 -8.410156 1.832031 -7.445312 1.5625 -6.46875 C 2.601562 -8.425781 3.488281 -9.722656 4.21875 -10.359375 C 4.957031 -11.003906 5.628906 -11.316406 6.234375 -11.296875 C 7.097656 -11.234375 7.773438 -10.753906 8.265625 -9.859375 C 8.753906 -8.972656 9.164062 -7.953125 9.5 -6.796875 C 9.957031 -5.203125 10.382812 -4.191406 10.78125 -3.765625 C 11.175781 -3.335938 11.46875 -3.125 11.65625 -3.125 C 12.050781 -3.0625 12.515625 -3.28125 13.046875 -3.78125 C 13.585938 -4.289062 14.125 -4.9375 14.65625 -5.71875 C 15.195312 -6.5 15.703125 -7.269531 16.171875 -8.03125 C 16.648438 -8.789062 17.007812 -9.414062 17.25 -9.90625 C 17.375 -10.125 17.554688 -10.265625 17.796875 -10.328125 C 18.046875 -10.390625 18.28125 -10.359375 18.5 -10.234375 Z M 18.5 -10.234375 "/></g></g></g></g></g></svg>